<svg id="Layer_1" data-name="Layer 1" xmlns="http://www.w3.org/2000/svg" viewBox="0 0 273.99 393.98"><defs><style>.cls-1,.cls-15,.cls-3,.cls-5,.cls-7,.cls-8{stroke:#000;}.cls-1,.cls-10,.cls-14,.cls-15,.cls-16,.cls-2,.cls-3,.cls-4,.cls-5,.cls-6,.cls-7,.cls-8,.cls-9{stroke-miterlimit:10;}.cls-12,.cls-13,.cls-2,.cls-4,.cls-5{fill:#fff;}.cls-10,.cls-14,.cls-16,.cls-2,.cls-4,.cls-6,.cls-9{stroke:#fff;}.cls-2,.cls-3,.cls-7,.cls-9{stroke-width:3px;}.cls-10,.cls-11,.cls-14,.cls-15,.cls-3,.cls-9{fill:none;}.cls-14,.cls-15,.cls-6,.cls-8{stroke-width:2px;}.cls-13{font-size:12.96px;font-family:PalatinoLinotype-Roman, Palatino Linotype;}</style></defs><title>logo-second-design</title><rect class="cls-1" x="0.5" y="0.5" width="272.99" height="392.98"/><path class="cls-2" d="M343.68,171.62s60.5-11.45,74.79-9.48c0,0-1.05,38.45,6.32,49.51,0,0,21.59-10.53,13.17,13.69,0,0-4.74,10.53-39.5,10,0,0-44.24,29-61.1,4.21,0,0-9-18.43,17.38-17.91C354.74,221.65,346.84,171.09,343.68,171.62Z" transform="translate(-252.6 -112.1)"/><path class="cls-1" d="M354.71,225.83l.2,12.64s5.84,3.07,42.56-7l18.72-15S365.1,228.23,354.71,225.83Z" transform="translate(-252.6 -112.1)"/><path class="cls-2" d="M314.71,249.57s22.65-6.85,36.34,21.59a25,25,0,0,0,20,0s18.61-4.21,45.12,2.11A22.31,22.31,0,0,0,429,268.53s7.37-22.12,34.23-19c0,0-10,1.58-10,8.43,0,0,1.05-1.58-.53,7.9,0,0,7.37,1.05,10.53-1.58a60.63,60.63,0,0,1-9,9S448,274.85,449,298c0,0,14.22,13.17,10,39l4.21,3.69V347a69.86,69.86,0,0,1-7.37,7.9s-40.55,35.29-63.2,13.69c0,0-5.79,3.16-2.63,5.27l-3.16-2.11-1.42-3.16s-37.55,24.23-70.73-21.07V335.94l3.16,1.05s-6.32-23.7,10.53-40.55l.53-3.69h3.69s1.58-11.06-4.21-9.48c0,0-7.37-12.11-13.69-17.38,0,0,.53-.53,8.43,2.63a86.53,86.53,0,0,1,0-13.17S316.82,247.46,314.71,249.57Z" transform="translate(-252.6 -112.1)"/><path class="cls-3" d="M335.89,295.39s-28.93,22.64,0,51.09c0,0,19.9,23.17,44.65-9.48l7.35-6.32,9.5,10.53s22.86,23.07,42.51,7.37c0,0,28.6-15.8,3.84-53.2,0,0-2.8-14.1,6.24-14.42l9.5-12.44h-9.42s1.05-10,1.05-15.8c0,0-6.63,19-11.22,19l4.37-11.59S424.14,279.59,410,274.85a7.33,7.33,0,0,0-5.33-3.78l-33.64.09s-13.17,12.11-37.92-9.48l5.79,11.06s-10-9.48-13.17-20c0,0-3.16,2.63,5.27,20.54l-8-2.11s2.44,7.37,12.86,10C335.89,281.17,341.09,290.07,335.89,295.39Z" transform="translate(-252.6 -112.1)"/><path class="cls-3" d="M416.19,354.45a76.29,76.29,0,0,0-24.41,13,57.48,57.48,0,0,0-4.91,4.28c2.63-5.79-25.81-17.3-25.81-17.3" transform="translate(-252.6 -112.1)"/><path class="cls-3" d="M377.39,340.9s10.33,9.65,11.59,18.74c0,0,1.33-13,11.2-16" transform="translate(-252.6 -112.1)"/><path class="cls-4" d="M372.16,316.43s-2.74,13.19-17.45,10.56c0,0-11-5.79-4.71-18.43,0,0,2.87-3.54,11.06,0C361.06,308.56,368.37,311.67,372.16,316.43Z" transform="translate(-252.6 -112.1)"/><path class="cls-5" d="M404.8,317.16s4.71,16.68,19.46,7.2c0,0,6.85-.51,3.69-17.37,0,0-7.72-1.06-11.76,1.57,0,0-7-.36-10.36,5.79" transform="translate(-252.6 -112.1)"/><path class="cls-6" d="M410,274.85s9,5.79,11.06,15.8c0,0,16.69-11.47,28.89-9.68,0,0-9.4-.32-6.24,14.42,0,0-3.69,8.5-6.32,8.2,0,0,8.12,15.54,2.48,23.68,0,0-11.1,15.52-23.12,11.31,0,0-14.65-3.16-23.08-14.22,0,0,13.69-7.36,13.17-17.37s0-3.39,0-3.39-4.23-9.78-10-6.62c0,0,3-11.06-5.61-16.85v-9c.18,0,4,7.43,4,7.43,6.85,3.16,6.85,14.22,10.53,13.17s3.69,6,3.69,6c4.74,1.3,2.11,5.85,2.11,5.85-.53,5-5.79,10.76-5.79,10.76a13,13,0,0,1-12.11,10,13.27,13.27,0,0,0-5.09-8.43c-3.51-1.05-6.5,8.43-6.5,8.43-3.16-1.58-6.18-3.16-6.18-3.16-3.55-3.69-8.56-12.11-8.56-12.11-4.74-11.06,10-11.06,10-11.06-11.06-4.74,3.16-17.91,3.16-17.91,4.74-4.74-16.33,15.27-16.33,15.27-5.27,11.59,5.11,16.83,5.11,16.83l2,6.58c7.13,3.92,10.77,5.56,10.77,5.56-2.11,24.75-30,16.54-30,16.54-29-19.27-13.17-37.31-13.17-37.31a14.75,14.75,0,0,1-3-8.2c4.33-13.69,1.76-9.85,0-14.22s18.81,11.59,18.81,11.59c-1.61-10,16.36-21.59,16.36-21.59" transform="translate(-252.6 -112.1)"/><circle class="cls-4" cx="107.13" cy="205.14" r="5.02"/><circle class="cls-4" cx="164.19" cy="205.14" r="5.02"/><path class="cls-7" d="M342.48,351.56a58.23,58.23,0,0,1-16.71,0s6.1,17,22.27,17.56c0,0,11.46.07,24.11-9.63,0,0-6.36-5.48-11.1-7.93C361.06,351.56,349.07,356.65,342.48,351.56Z" transform="translate(-252.6 -112.1)"/><path class="cls-8" d="M404.8,359.1s12.79,13.11,24,10c0,0,16.55-3,23.39-17.56,0,0-10.3,3-14.63-1.29,0,0-9,6.72-18.57,3.15" transform="translate(-252.6 -112.1)"/><polygon class="cls-9" points="39.99 242.35 224.74 97.97 39.99 143.26 254.88 261.76 39.99 242.35"/><polygon class="cls-9" points="53.16 191.49 136.38 33.18 219.59 191.49 53.16 191.49"/><polygon class="cls-9" points="55.27 200.12 136.38 312.85 216.96 200.12 55.27 200.12"/><line class="cls-10" x1="42.63" y1="174.34" x2="246.45" y2="68.47"/><line class="cls-10" x1="70.44" y1="73.74" x2="237.5" y2="230.11"/><line class="cls-11" x1="136.38" y1="21.07" x2="136.38" y2="332.87"/><path class="cls-12" d="M401.05,295.15a9.6,9.6,0,0,1,4.38,3.69c1,1.63,3.62.13,2.59-1.51a12.32,12.32,0,0,0-5.46-4.77,1.55,1.55,0,0,0-2.05.54,1.51,1.51,0,0,0,.54,2.05Z" transform="translate(-252.6 -112.1)"/><path class="cls-12" d="M401.08,295.09a22.93,22.93,0,0,1,4.08,3.09c1.43,1.36,3.32-.65,2.12-2.12l-2.6-3.21L402.56,295l2.54,2.39c1,1,3,0,2.51-1.46a10,10,0,0,0-1.85-3.31l-1.46,2.51c.4.07.44.2.31.54a1.51,1.51,0,0,0,1.45,1.9,2.18,2.18,0,0,0,1.06-4,1.51,1.51,0,0,0-2.26,1.3,8.57,8.57,0,0,0,1.12,4,1.5,1.5,0,0,0,2.59-1.51,5.26,5.26,0,0,1-.71-2.52l-2.26,1.3.46-1.57,1.45,1.9a3.26,3.26,0,0,0-2.41-4.23,1.51,1.51,0,0,0-1.46,2.51,6.08,6.08,0,0,1,1.08,2l2.51-1.46-2.54-2.39c-1.44-1.35-3.32.65-2.12,2.12l2.6,3.21,2.12-2.12a26.56,26.56,0,0,0-4.69-3.56,1.5,1.5,0,0,0-1.51,2.59Z" transform="translate(-252.6 -112.1)"/><path class="cls-12" d="M403.83,294.07l-2-.56c-1.73-.5-2.47,1.79-1.16,2.74l3.43,2.48c1.24.89,2.82-.84,2.05-2.05l-1.54-2.45c-1-1.63-3.6-.15-2.59,1.51l1.15,1.9,2.36-1.82a11.72,11.72,0,0,0-4.77-2.38,1.52,1.52,0,0,0-1.9,1.45c0,2.13,1.63,1.65,3,2.21l-1-1.85-.05.27,1-1-.31.09,1.85,1c-.7-2.46-4.08-2.42-5.86-1.44l2.05,2.05a8.69,8.69,0,0,0,1-5c-.14-1.54-2.67-2.2-2.95-.4a6,6,0,0,0,.7,4.24,1.52,1.52,0,0,0,2.74-.36,6.13,6.13,0,0,0-.52-5.74c-1-1.69-3.32-.22-2.59,1.51a16.08,16.08,0,0,0,3.11,4.75c1.33,1.43,3.36-.67,2.12-2.12a16,16,0,0,1-2.72-4.47c-.71-1.76-3.59-1-2.89.8a19.35,19.35,0,0,0,3.48,5.84,1.51,1.51,0,0,0,2.51-1.46,19.35,19.35,0,0,0-3.37-6.1c-.85-1.06-2.55-.14-2.56,1.06l0,4.33,2.95-.4-.56-2.3a1.51,1.51,0,0,0-2.95.4v3.94c0,2,2.81,1.89,3,0a13.54,13.54,0,0,0-.55-5.45,1.5,1.5,0,0,0-2.89.8,18.76,18.76,0,0,0,1.38,4.34,1.51,1.51,0,0,0,2.74-.36,11.59,11.59,0,0,0-.81-6.88,1.51,1.51,0,0,0-2.89,0,13,13,0,0,0,.39,7.89c.46,1.23,2.63,1.61,2.89,0a22.47,22.47,0,0,0,.27-5.25,1.51,1.51,0,0,0-2.95-.4,5.21,5.21,0,0,0,.39,3.92,1.51,1.51,0,0,0,2.74-.36,7.17,7.17,0,0,0-.27-4.32c-.55-1.44-3.16-1.42-2.95.4a5.73,5.73,0,0,0,1.13,3,1.51,1.51,0,0,0,2.74-1.16l-.9-3.93-2.89.8.9,2.4,2.89-.8-1.89-4.87-2.74,1.16,2.08,3.67,2.59-1.51-2.62-3.39-.23,1.82.11-.11h-2.12l.1.13c1.2,1.51,3.31-.62,2.12-2.12l-.1-.13a1.51,1.51,0,0,0-2.12,0l-.11.11a1.52,1.52,0,0,0-.23,1.82l2.62,3.39c1.14,1.48,3.57.22,2.59-1.51l-2.08-3.67c-.81-1.44-3.37-.46-2.74,1.16l1.89,4.87c.69,1.78,3.58,1,2.89-.8l-.9-2.4a1.5,1.5,0,0,0-2.89.8l.9,3.93,2.74-1.16a2.6,2.6,0,0,1-.72-1.53l-2.95.4a4.37,4.37,0,0,1,.27,2.72l2.74-.36-.09-1.61-2.95-.4a19.09,19.09,0,0,1-.17,4.46h2.89A10,10,0,0,1,400,288h-2.89a9,9,0,0,1,.81,5.29l2.74-.36a15.53,15.53,0,0,1-1.08-3.63l-2.89.8a11.5,11.5,0,0,1,.45,4.66h3v-3.94l-2.95.4.56,2.3a1.51,1.51,0,0,0,2.95-.4l0-4.33-2.56,1.06a15.16,15.16,0,0,1,2.6,4.78l2.51-1.46a15.09,15.09,0,0,1-2.71-4.52l-2.89.8a20.55,20.55,0,0,0,3.5,5.79l2.12-2.12a13.83,13.83,0,0,1-2.64-4.14L398,290.5a3.38,3.38,0,0,1,.22,3.43l2.74-.36-.39-1.92-2.95-.4a5.76,5.76,0,0,1-.64,3.47,1.51,1.51,0,0,0,2.05,2.05l1.46-.35a1.52,1.52,0,0,0,1.85,1l.31-.09a1.49,1.49,0,0,0,1-1l.05-.27a1.56,1.56,0,0,0-1-1.85c-.1,0-1.58-.29-1.57-.28l.74,1.3v-.33l-1.9,1.45a8.28,8.28,0,0,1,3.45,1.6c1.25,1,3.31-.25,2.36-1.82l-1.15-1.9-2.59,1.51,1.54,2.45,2.05-2.05-3.43-2.48-1.16,2.74,2,.56a1.5,1.5,0,0,0,.8-2.89Z" transform="translate(-252.6 -112.1)"/><path class="cls-12" d="M398.69,292.51a.7.7,0,0,1,.61-.44c.6.06.78,1.41.13,1.52a.6.6,0,0,1-.76-.55c0,.28.34.67.48.89a22.79,22.79,0,0,0,2.55,3.24c1.33,1.41,3.43-.7,2.12-2.12l-2.54-2.75c-1.31-1.42-3.43.7-2.12,2.12l2.54,2.75,2.12-2.12a17.92,17.92,0,0,1-1.55-1.86,14.22,14.22,0,0,0-1.28-1.93,2.56,2.56,0,0,0-3.56.16,2.18,2.18,0,0,0,1,3.5,2.41,2.41,0,0,0,3.18-1.61c.37-1.89-2.52-2.69-2.89-.8Z" transform="translate(-252.6 -112.1)"/><path class="cls-12" d="M399.16,297a29.51,29.51,0,0,0,.35-6.89c-.14-1.91-3.14-1.93-3,0a26.18,26.18,0,0,1-.24,6.09c-.31,1.89,2.58,2.7,2.89.8Z" transform="translate(-252.6 -112.1)"/><path class="cls-12" d="M399.61,296.63a6.29,6.29,0,0,1,2.07-2.64,1.54,1.54,0,0,0,.54-2.05,1.51,1.51,0,0,0-2.05-.54,9.14,9.14,0,0,0-3.15,3.72,1.55,1.55,0,0,0,.54,2.05,1.51,1.51,0,0,0,2.05-.54Z" transform="translate(-252.6 -112.1)"/><path class="cls-12" d="M399.76,296.69a10.1,10.1,0,0,1,5.21,5c.85,1.73,3.43.22,2.59-1.51a13.16,13.16,0,0,0-7-6.41c-1.79-.73-2.56,2.17-.8,2.89Z" transform="translate(-252.6 -112.1)"/><path class="cls-12" d="M401.47,296.4a30.14,30.14,0,0,1,7,9.35c.83,1.74,3.42.22,2.59-1.51a32.34,32.34,0,0,0-7.42-10c-1.43-1.3-3.55.82-2.12,2.12Z" transform="translate(-252.6 -112.1)"/><path class="cls-12" d="M403.91,297a31.88,31.88,0,0,1,2.77,10.75c.15,1.91,3.15,1.93,3,0a36.18,36.18,0,0,0-3.18-12.27c-.8-1.75-3.38-.23-2.59,1.51Z" transform="translate(-252.6 -112.1)"/><path class="cls-12" d="M406.58,300.59a41.5,41.5,0,0,1-.26,7.93c-.25,1.91,2.76,1.89,3,0a41.5,41.5,0,0,0,.26-7.93c-.12-1.92-3.12-1.93-3,0Z" transform="translate(-252.6 -112.1)"/><path class="cls-12" d="M397.06,324.55a11,11,0,0,0,4.53-3.12,1.54,1.54,0,0,0,0-2.12,1.51,1.51,0,0,0-2.12,0,7.94,7.94,0,0,1-3.2,2.35,1.54,1.54,0,0,0-1,1.85,1.51,1.51,0,0,0,1.85,1Z" transform="translate(-252.6 -112.1)"/><path class="cls-12" d="M396.94,324.88l5.88-4.52a1.55,1.55,0,0,0,.54-2.05,1.51,1.51,0,0,0-2.05-.54l-5.88,4.52a1.55,1.55,0,0,0-.54,2.05,1.51,1.51,0,0,0,2.05.54Z" transform="translate(-252.6 -112.1)"/><path class="cls-12" d="M401.7,321.54l3.5-3.7c1.33-1.4-.79-3.53-2.12-2.12l-3.5,3.7c-1.33,1.4.79,3.53,2.12,2.12Z" transform="translate(-252.6 -112.1)"/><path class="cls-12" d="M401.15,323l4-6.1c1.06-1.62-1.54-3.13-2.59-1.51l-4,6.1c-1.06,1.62,1.54,3.13,2.59,1.51Z" transform="translate(-252.6 -112.1)"/><path class="cls-12" d="M404.75,318.29,406.9,315a1.5,1.5,0,1,0-2.59-1.51l-2.15,3.25a1.5,1.5,0,1,0,2.59,1.51Z" transform="translate(-252.6 -112.1)"/><path class="cls-12" d="M403.69,320.46l1.71-2.58a1.5,1.5,0,1,0-2.59-1.51l-1.71,2.58a1.5,1.5,0,0,0,2.59,1.51Z" transform="translate(-252.6 -112.1)"/><path class="cls-12" d="M400.78,323.32,403.2,320a1.51,1.51,0,0,0-.54-2.05,1.53,1.53,0,0,0-2.05.54l-2.42,3.31a1.51,1.51,0,0,0,.54,2.05,1.53,1.53,0,0,0,2.05-.54Z" transform="translate(-252.6 -112.1)"/><path class="cls-12" d="M401.28,322.2a49.27,49.27,0,0,0,7.08-10.4c.87-1.72-1.72-3.24-2.59-1.51a46.21,46.21,0,0,1-6.61,9.79c-1.27,1.44.84,3.57,2.12,2.12Z" transform="translate(-252.6 -112.1)"/><path class="cls-12" d="M406.13,316.09l3.53-8c.78-1.75-1.81-3.28-2.59-1.51l-3.53,8c-.78,1.75,1.81,3.28,2.59,1.51Z" transform="translate(-252.6 -112.1)"/><path class="cls-12" d="M407.58,312.09a45.18,45.18,0,0,1,3.27-6.77,1.5,1.5,0,0,0-2.59-1.51,49.87,49.87,0,0,0-3.57,7.49c-.69,1.81,2.21,2.59,2.89.8Z" transform="translate(-252.6 -112.1)"/><path class="cls-12" d="M407.72,312.86l3.4-8.22c.74-1.78-2.16-2.56-2.89-.8l-3.4,8.22c-.74,1.78,2.16,2.56,2.89.8Z" transform="translate(-252.6 -112.1)"/><path class="cls-12" d="M407.57,312.49l3.79-6.37a1.5,1.5,0,0,0-2.59-1.51L405,311a1.5,1.5,0,0,0,2.59,1.51Z" transform="translate(-252.6 -112.1)"/><path class="cls-12" d="M408,312.18l3.21-5.78c.94-1.69-1.65-3.2-2.59-1.51l-3.21,5.78c-.94,1.69,1.65,3.2,2.59,1.51Z" transform="translate(-252.6 -112.1)"/><path class="cls-12" d="M408,312.14a23.45,23.45,0,0,0,3.43-6.46c.64-1.83-2.26-2.61-2.89-.8a21,21,0,0,1-3.12,5.75c-1.17,1.54,1.44,3,2.59,1.51Z" transform="translate(-252.6 -112.1)"/><path class="cls-12" d="M408,312.54a30.72,30.72,0,0,0,3.64-9c.43-1.88-2.47-2.68-2.89-.8a28,28,0,0,1-3.34,8.33,1.5,1.5,0,0,0,2.59,1.51Z" transform="translate(-252.6 -112.1)"/><path class="cls-12" d="M410.61,308.9a22,22,0,0,0,1.2-6.15c.11-1.93-2.9-1.92-3,0a19.09,19.09,0,0,1-1.09,5.35c-.64,1.82,2.25,2.61,2.89.8Z" transform="translate(-252.6 -112.1)"/><path class="cls-12" d="M410.48,307.82a9.33,9.33,0,0,0,1.68-4.71,1.51,1.51,0,0,0-1.5-1.5,1.53,1.53,0,0,0-1.5,1.5,6.4,6.4,0,0,1-1.27,3.2,1.51,1.51,0,0,0,.54,2.05,1.53,1.53,0,0,0,2.05-.54Z" transform="translate(-252.6 -112.1)"/><path class="cls-12" d="M411.26,306.74l.75-5a1.55,1.55,0,0,0-1-1.85,1.51,1.51,0,0,0-1.85,1l-.75,5a1.55,1.55,0,0,0,1,1.85,1.51,1.51,0,0,0,1.85-1Z" transform="translate(-252.6 -112.1)"/><path class="cls-12" d="M405.13,300.31a12.63,12.63,0,0,1,2.67,5.35c.45,1.88,3.34,1.08,2.89-.8a15.89,15.89,0,0,0-3.44-6.67c-1.25-1.47-3.37.66-2.12,2.12Z" transform="translate(-252.6 -112.1)"/><path class="cls-12" d="M404.63,299.2l3.19,4.71c1.08,1.59,3.68.09,2.59-1.51l-3.19-4.71c-1.08-1.59-3.68-.09-2.59,1.51Z" transform="translate(-252.6 -112.1)"/><path class="cls-12" d="M404.94,297.79l3.58,5.77c1,1.64,3.61.13,2.59-1.51l-3.58-5.77c-1-1.64-3.61-.13-2.59,1.51Z" transform="translate(-252.6 -112.1)"/><path class="cls-12" d="M405.6,298.06a13,13,0,0,1,3.66,4.4c.88,1.72,3.47.2,2.59-1.51a15,15,0,0,0-4.13-5,1.55,1.55,0,0,0-2.12,0,1.51,1.51,0,0,0,0,2.12Z" transform="translate(-252.6 -112.1)"/><path class="cls-12" d="M406,298a10.25,10.25,0,0,1,2.33,8.64c-.36,1.89,2.54,2.7,2.89.8a13.5,13.5,0,0,0-3.1-11.56c-1.26-1.47-3.38.66-2.12,2.12Z" transform="translate(-252.6 -112.1)"/><path class="cls-12" d="M406.38,299.16a5,5,0,0,1,2.13,6.38c-.82,1.74,1.77,3.26,2.59,1.51a8.09,8.09,0,0,0-3.21-10.49,1.5,1.5,0,0,0-1.51,2.59Z" transform="translate(-252.6 -112.1)"/><path class="cls-12" d="M407.21,299a9.2,9.2,0,0,1,2.57,5.94c.1,1.92,3.1,1.93,3,0a12.45,12.45,0,0,0-3.45-8.06c-1.33-1.4-3.45.72-2.12,2.12Z" transform="translate(-252.6 -112.1)"/><path class="cls-12" d="M408.49,299.48a5,5,0,0,1,.84,6.47c-1,1.64,1.56,3.14,2.59,1.51a8.05,8.05,0,0,0-1.31-10.11c-1.41-1.31-3.54.8-2.12,2.12Z" transform="translate(-252.6 -112.1)"/><path class="cls-12" d="M409.72,300.94a11.52,11.52,0,0,1-2.24,7.13c-1.13,1.57,1.48,3.07,2.59,1.51a14.25,14.25,0,0,0,2.65-8.65c0-1.93-3-1.93-3,0Z" transform="translate(-252.6 -112.1)"/><path class="cls-12" d="M410.34,299.84a28,28,0,0,1-3.54,10.07,1.5,1.5,0,0,0,2.59,1.51,30.19,30.19,0,0,0,3.84-10.78c.29-1.89-2.6-2.7-2.89-.8Z" transform="translate(-252.6 -112.1)"/><path class="cls-12" d="M405.19,300.59a51.92,51.92,0,0,1-.82,10c-.34,1.89,2.55,2.7,2.89.8a56.12,56.12,0,0,0,.93-10.82,1.5,1.5,0,0,0-3,0Z" transform="translate(-252.6 -112.1)"/><path class="cls-12" d="M406,302a44.21,44.21,0,0,1-3.32,14.33c-.74,1.78,2.17,2.56,2.89.8A46.61,46.61,0,0,0,409,302c.12-1.93-2.88-1.92-3,0Z" transform="translate(-252.6 -112.1)"/><path class="cls-12" d="M405.59,309.19a60.16,60.16,0,0,1-6.17,11.27c-1.1,1.59,1.5,3.09,2.59,1.51a63.65,63.65,0,0,0,6.48-12c.74-1.78-2.17-2.56-2.89-.8Z" transform="translate(-252.6 -112.1)"/><path class="cls-12" d="M404.2,312a37.12,37.12,0,0,1-5,7.72c-1.24,1.47.87,3.6,2.12,2.12a40.18,40.18,0,0,0,5.48-8.33c.85-1.73-1.74-3.25-2.59-1.51Z" transform="translate(-252.6 -112.1)"/><path class="cls-12" d="M400.64,292a50.73,50.73,0,0,0,5.31,6.41c1.35,1.38,3.47-.74,2.12-2.12a46,46,0,0,1-4.84-5.8c-1.1-1.57-3.7-.07-2.59,1.51Z" transform="translate(-252.6 -112.1)"/><path class="cls-12" d="M399,287.37a49.59,49.59,0,0,0,4.62,8.94c1.06,1.61,3.65.11,2.59-1.51a45.83,45.83,0,0,1-4.32-8.23c-.71-1.77-3.61-1-2.89.8Z" transform="translate(-252.6 -112.1)"/><path class="cls-12" d="M399,287.7a30,30,0,0,0,4.52,9c1.13,1.54,3.74,0,2.59-1.51a27.58,27.58,0,0,1-4.21-8.3c-.57-1.84-3.46-1.05-2.89.8Z" transform="translate(-252.6 -112.1)"/><path class="cls-12" d="M398.11,287.37a19,19,0,0,0,6.16,9.83c1.47,1.24,3.6-.88,2.12-2.12a16.27,16.27,0,0,1-5.39-8.51,1.5,1.5,0,0,0-2.89.8Z" transform="translate(-252.6 -112.1)"/><path class="cls-12" d="M398.56,289.41a23.38,23.38,0,0,0,5.18,8.71c1.32,1.41,3.44-.71,2.12-2.12a19.86,19.86,0,0,1-4.41-7.38c-.61-1.82-3.5-1-2.89.8Z" transform="translate(-252.6 -112.1)"/><path class="cls-12" d="M399.08,291.72l4.15,7.09a1.5,1.5,0,0,0,2.59-1.51l-4.15-7.09a1.5,1.5,0,0,0-2.59,1.51Z" transform="translate(-252.6 -112.1)"/><path class="cls-12" d="M398.08,296.22a7.27,7.27,0,0,0,4.62,2.32,1.51,1.51,0,0,0,1.5-1.5,1.54,1.54,0,0,0-1.5-1.5,4.16,4.16,0,0,1-2.5-1.44,1.5,1.5,0,0,0-2.12,2.12Z" transform="translate(-252.6 -112.1)"/><path class="cls-12" d="M398,295.89a6,6,0,0,0,4.66,1.88c1.92-.1,1.93-3.1,0-3a3.08,3.08,0,0,1-2.54-1c-1.33-1.41-3.44.72-2.12,2.12Z" transform="translate(-252.6 -112.1)"/><path class="cls-12" d="M406.67,295.25a1.5,1.5,0,0,0,0-3,1.5,1.5,0,0,0,0,3Z" transform="translate(-252.6 -112.1)"/><path class="cls-12" d="M405.84,293.81l1.23,6.09c.38,1.89,3.27,1.09,2.89-.8L408.74,293c-.38-1.89-3.27-1.09-2.89.8Z" transform="translate(-252.6 -112.1)"/><path class="cls-12" d="M405.8,294.55l1.57,5.73a1.5,1.5,0,0,0,2.89-.8l-1.57-5.73a1.5,1.5,0,0,0-2.89.8Z" transform="translate(-252.6 -112.1)"/><path class="cls-12" d="M406,294.14l1.7,8.3c.39,1.89,3.28,1.09,2.89-.8l-1.7-8.3c-.39-1.89-3.28-1.09-2.89.8Z" transform="translate(-252.6 -112.1)"/><path class="cls-12" d="M406.74,298.15a18,18,0,0,0,4.57,4.45c1.6,1.08,3.11-1.51,1.51-2.59a13.88,13.88,0,0,1-3.49-3.38,1.54,1.54,0,0,0-2.05-.54,1.51,1.51,0,0,0-.54,2.05Z" transform="translate(-252.6 -112.1)"/><path class="cls-12" d="M408.08,298.1a5.32,5.32,0,0,1,1.9,3.23,1.51,1.51,0,0,0,1.85,1,1.53,1.53,0,0,0,1-1.85A7.86,7.86,0,0,0,410.2,296a1.54,1.54,0,0,0-2.12,0,1.51,1.51,0,0,0,0,2.12Z" transform="translate(-252.6 -112.1)"/><path class="cls-12" d="M410,297.77a5.84,5.84,0,0,0-2.92-6.78c-1.72-.86-3.24,1.73-1.51,2.59a2.84,2.84,0,0,1,1.54,3.4,1.5,1.5,0,0,0,2.89.8Z" transform="translate(-252.6 -112.1)"/><path class="cls-12" d="M408.22,292.78a37.28,37.28,0,0,0-7.33-1.33c-1.92-.16-1.91,2.84,0,3a33.23,33.23,0,0,1,6.53,1.22,1.5,1.5,0,0,0,.8-2.89Z" transform="translate(-252.6 -112.1)"/><path class="cls-12" d="M407,292.06a15.38,15.38,0,0,1-4.74-1.23c-1.75-.77-3.28,1.81-1.51,2.59a19.91,19.91,0,0,0,6.25,1.64c1.92.18,1.91-2.82,0-3Z" transform="translate(-252.6 -112.1)"/><path class="cls-12" d="M406.65,292.08a26,26,0,0,1-4.2-2.25c-1.62-1.05-3.13,1.54-1.51,2.59a30.06,30.06,0,0,0,4.92,2.55,1.51,1.51,0,0,0,1.85-1,1.54,1.54,0,0,0-1-1.85Z" transform="translate(-252.6 -112.1)"/><path class="cls-12" d="M406.81,292.31l-4.92-3.64a1.51,1.51,0,0,0-2.05.54,1.53,1.53,0,0,0,.54,2.05l4.92,3.64a1.51,1.51,0,0,0,2.05-.54,1.53,1.53,0,0,0-.54-2.05Z" transform="translate(-252.6 -112.1)"/><path class="cls-12" d="M406.87,292.64l-4-5.37a1.55,1.55,0,0,0-2.05-.54,1.51,1.51,0,0,0-.54,2.05l4,5.37a1.55,1.55,0,0,0,2.05.54,1.51,1.51,0,0,0,.54-2.05Z" transform="translate(-252.6 -112.1)"/><path class="cls-12" d="M405.39,292a15.2,15.2,0,0,1-2.84-7.22c-.21-1.9-3.21-1.92-3,0a18.2,18.2,0,0,0,3.25,8.73c1.11,1.56,3.72.06,2.59-1.51Z" transform="translate(-252.6 -112.1)"/><path class="cls-12" d="M403.34,289a12.91,12.91,0,0,1-2.49-5.71c-.33-1.9-3.22-1.09-2.89.8a14.81,14.81,0,0,0,2.79,6.42c1.15,1.52,3.76,0,2.59-1.51Z" transform="translate(-252.6 -112.1)"/><path class="cls-12" d="M402.44,289.81a71.84,71.84,0,0,1-2.71-7.23c-.58-1.83-3.48-1.05-2.89.8a79,79,0,0,0,3,7.94c.78,1.76,3.36.24,2.59-1.51Z" transform="translate(-252.6 -112.1)"/><path class="cls-12" d="M400.82,286.12l-3-5a1.5,1.5,0,0,0-2.59,1.51l3,5a1.5,1.5,0,0,0,2.59-1.51Z" transform="translate(-252.6 -112.1)"/><path class="cls-12" d="M400.54,285.84a16,16,0,0,1-2.94-5.43c-.58-1.83-3.48-1.05-2.89.8a19.82,19.82,0,0,0,3.71,6.75c1.23,1.49,3.35-.65,2.12-2.12Z" transform="translate(-252.6 -112.1)"/><path class="cls-12" d="M389.87,277.3a18.1,18.1,0,0,0,5.75,8.38c1.49,1.2,3.62-.91,2.12-2.12a15.29,15.29,0,0,1-5-7.05c-.61-1.82-3.51-1-2.89.8Z" transform="translate(-252.6 -112.1)"/><path class="cls-12" d="M392,280.14l5.83,10.77c.92,1.7,3.51.19,2.59-1.51l-5.83-10.77c-.92-1.7-3.51-.19-2.59,1.51Z" transform="translate(-252.6 -112.1)"/><path class="cls-12" d="M393.95,282.73c.62,1.39,1.24,2.78,1.86,4.18s1.45,3,1.22,4.58c-.27,1.89,2.62,2.7,2.89.8.55-3.9-1.85-7.62-3.38-11.07-.78-1.76-3.37-.24-2.59,1.51Z" transform="translate(-252.6 -112.1)"/><path class="cls-12" d="M395.43,284.75a42.5,42.5,0,0,0,1.21,7.94c.47,1.87,3.36,1.08,2.89-.8a38.14,38.14,0,0,1-1.1-7.15c-.11-1.92-3.11-1.93-3,0Z" transform="translate(-252.6 -112.1)"/><path class="cls-12" d="M391.54,277.23a16.21,16.21,0,0,0,7.9,8.79c1.72.86,3.25-1.73,1.51-2.59a13.15,13.15,0,0,1-6.53-7c-.69-1.78-3.59-1-2.89.8Z" transform="translate(-252.6 -112.1)"/><path class="cls-12" d="M391.85,278a17.17,17.17,0,0,0,6.86,7.29,1.5,1.5,0,0,0,1.51-2.59,14.37,14.37,0,0,1-5.78-6.21c-.85-1.73-3.44-.21-2.59,1.51Z" transform="translate(-252.6 -112.1)"/><path class="cls-12" d="M393.06,279.67a8.9,8.9,0,0,1,5.28,7.23c.18,1.91,3.18,1.92,3,0a11.88,11.88,0,0,0-6.76-9.82c-1.74-.81-3.27,1.78-1.51,2.59Z" transform="translate(-252.6 -112.1)"/><path class="cls-12" d="M395.09,281.19a17.3,17.3,0,0,1,3.65,11.12c0,1.93,3,1.93,3,0a20.57,20.57,0,0,0-4.53-13.24c-1.19-1.52-3.3.62-2.12,2.12Z" transform="translate(-252.6 -112.1)"/><path class="cls-12" d="M390.37,274.31a32,32,0,0,0,1.2,7.59,1.5,1.5,0,0,0,2.89-.8,28.47,28.47,0,0,1-1.09-6.79c-.07-1.92-3.07-1.93-3,0Z" transform="translate(-252.6 -112.1)"/><path class="cls-12" d="M390.74,274.31a18.06,18.06,0,0,1-.25,5c-.37,1.89,2.52,2.69,2.89.8a21,21,0,0,0,.36-5.8c-.16-1.91-3.16-1.93-3,0Z" transform="translate(-252.6 -112.1)"/><path class="cls-12" d="M390.34,277.54l-.36,2.88a1.51,1.51,0,0,0,1.5,1.5,1.54,1.54,0,0,0,1.5-1.5l.36-2.88a1.51,1.51,0,0,0-1.5-1.5,1.54,1.54,0,0,0-1.5,1.5Z" transform="translate(-252.6 -112.1)"/><path class="cls-12" d="M390.37,276.47a10.56,10.56,0,0,0,1.9,5.53,1.54,1.54,0,0,0,2.05.54,1.51,1.51,0,0,0,.54-2.05,7.66,7.66,0,0,1-1.5-4c-.12-1.92-3.12-1.93-3,0Z" transform="translate(-252.6 -112.1)"/><path class="cls-12" d="M390.76,279l1.43,3.61a1.55,1.55,0,0,0,1.85,1,1.51,1.51,0,0,0,1-1.85l-1.43-3.61a1.55,1.55,0,0,0-1.85-1,1.51,1.51,0,0,0-1,1.85Z" transform="translate(-252.6 -112.1)"/><path class="cls-12" d="M390.4,278.63a4.5,4.5,0,0,0,1.16,3.22,1.51,1.51,0,0,0,2.12,0,1.53,1.53,0,0,0,0-2.12c.13.15-.12-.2-.13-.2-.17-.26,0,.09-.09-.22,0-.05-.09-.47-.06-.21a2.89,2.89,0,0,1,0-.47,1.51,1.51,0,0,0-1.5-1.5,1.53,1.53,0,0,0-1.5,1.5Z" transform="translate(-252.6 -112.1)"/><path class="cls-12" d="M394.5,277.91a17.93,17.93,0,0,0-1.12-5.45c-.68-1.79-3.58-1-2.89.8a15.3,15.3,0,0,1,1,4.65c.1,1.92,3.1,1.93,3,0Z" transform="translate(-252.6 -112.1)"/><path class="cls-12" d="M394.12,276.06l-.41-2.87a1.51,1.51,0,0,0-1.85-1,1.54,1.54,0,0,0-1,1.85l.41,2.87a1.51,1.51,0,0,0,1.85,1,1.54,1.54,0,0,0,1-1.85Z" transform="translate(-252.6 -112.1)"/><path class="cls-12" d="M391.16,275.79a18.1,18.1,0,0,0,3.34,6.37c1.21,1.51,3.32-.63,2.12-2.12a14.38,14.38,0,0,1-2.57-5,1.5,1.5,0,0,0-2.89.8Z" transform="translate(-252.6 -112.1)"/><path class="cls-12" d="M391.6,276.54a19.73,19.73,0,0,0,3.64,5.6c1.31,1.43,3.42-.7,2.12-2.12a17.44,17.44,0,0,1-3.17-5,1.51,1.51,0,0,0-2.05-.54,1.54,1.54,0,0,0-.54,2.05Z" transform="translate(-252.6 -112.1)"/><path class="cls-12" d="M391.22,276.93l4.92,7.64c1,1.62,3.64.12,2.59-1.51l-4.92-7.64c-1-1.62-3.64-.12-2.59,1.51Z" transform="translate(-252.6 -112.1)"/><path class="cls-12" d="M391.78,278.61l5.31,8.69c1,1.64,3.6.14,2.59-1.51l-5.31-8.69c-1-1.64-3.6-.14-2.59,1.51Z" transform="translate(-252.6 -112.1)"/><path class="cls-12" d="M391.54,278.67a13.47,13.47,0,0,0,5.35,8.13c1.56,1.14,3.06-1.46,1.51-2.59a10.39,10.39,0,0,1-4-6.34c-.4-1.89-3.29-1.09-2.89.8Z" transform="translate(-252.6 -112.1)"/><path class="cls-12" d="M391.32,279.39l6.11,9.37c1.05,1.61,3.65.11,2.59-1.51l-6.11-9.37c-1.05-1.61-3.65-.11-2.59,1.51Z" transform="translate(-252.6 -112.1)"/><path class="cls-12" d="M393,282.32q2.93,4.77,6.19,9.32c1.11,1.56,3.72.06,2.59-1.51q-3.26-4.55-6.19-9.32c-1-1.64-3.61-.14-2.59,1.51Z" transform="translate(-252.6 -112.1)"/><path d="M379.24,344.52a2.71,2.71,0,0,0,3.25,1.31c1.53-.48,2.11-2.06,2.36-3.5l-2.51.66a3.2,3.2,0,0,0,5.06-.8,8.39,8.39,0,0,0,.79-3.73,41.19,41.19,0,0,1,1.09-6.44c.46-1.87-2.43-2.67-2.89-.8a45.54,45.54,0,0,0-.92,4.74c-.09.68-.17,1.36-.24,2,0,.36-.41,3.2-.76,2.88a1.51,1.51,0,0,0-2.51.66,5.05,5.05,0,0,0-.13,1.48c-.93-1.69-3.52-.18-2.59,1.51Z" transform="translate(-252.6 -112.1)"/><path d="M386,332.35c.72,2.69,1.46,5.38,2.3,8,.51,1.6.92,3.16,2.56,3.9a1.53,1.53,0,0,0,2.2-.9l.65-1.66-2.74.36a12.07,12.07,0,0,0,4.07,4.57c1.59,1.1,3.1-1.5,1.51-2.59a9,9,0,0,1-3-3.49c-.64-1.26-2.31-.74-2.74.36l-.65,1.66,2.2-.9c-1.28-.57-1.72-3.87-2.08-5.11-.49-1.67-1-3.35-1.4-5a1.5,1.5,0,0,0-2.89.8Z" transform="translate(-252.6 -112.1)"/><path d="M384.84,345.6l1.23,5.27a1.51,1.51,0,0,0,2.95-.4,34.05,34.05,0,0,0-.81-6.45l-2.89.8a27.91,27.91,0,0,1,1.22,5.54l2.95-.4a42.43,42.43,0,0,1-.78-7.16,1.5,1.5,0,0,0-3,0l0,5.06a1.5,1.5,0,0,0,3,0V342l-2.95.4a21.43,21.43,0,0,1,.27,5.73c-.15,1.92,2.85,1.91,3,0a24.41,24.41,0,0,0-.38-6.53c-.32-1.69-2.95-1.26-2.95.4v5.88h3l0-5.06h-3a47.29,47.29,0,0,0,.89,8c.32,1.64,3.13,1.29,2.95-.4a31.76,31.76,0,0,0-1.32-6.34,1.5,1.5,0,0,0-2.89.8,29.74,29.74,0,0,1,.7,5.65l2.95-.4-1.23-5.27c-.44-1.88-3.33-1.08-2.89.8Z" transform="translate(-252.6 -112.1)"/><path d="M383.76,346.36a55.6,55.6,0,0,1,4,6.1,1.5,1.5,0,0,0,2.59-1.51,55.6,55.6,0,0,0-4-6.1c-1.15-1.52-3.75,0-2.59,1.51Z" transform="translate(-252.6 -112.1)"/><path d="M382.89,345.72l3.85,6.7a1.5,1.5,0,0,0,2.59-1.51l-3.85-6.7a1.5,1.5,0,0,0-2.59,1.51Z" transform="translate(-252.6 -112.1)"/><path d="M384.17,347.4a27.3,27.3,0,0,1,3.11,6.13c.64,1.81,3.54,1,2.89-.8a30.45,30.45,0,0,0-3.41-6.85c-1.07-1.6-3.67-.1-2.59,1.51Z" transform="translate(-252.6 -112.1)"/><path d="M385.87,348.13l1,4.34c.44,1.88,3.33,1.08,2.89-.8l-1-4.34c-.44-1.88-3.33-1.08-2.89.8Z" transform="translate(-252.6 -112.1)"/><path d="M390.52,351.72a5.57,5.57,0,0,1,.89-3.56c1-1.63-1.55-3.14-2.59-1.51a8.31,8.31,0,0,0-1.3,5.07c.14,1.91,3.14,1.93,3,0Z" transform="translate(-252.6 -112.1)"/><path d="M390.44,351.38a13.06,13.06,0,0,1,1.68-3.6c1.07-1.62-1.53-3.12-2.59-1.51a15.85,15.85,0,0,0-2,4.31,1.5,1.5,0,0,0,2.89.8Z" transform="translate(-252.6 -112.1)"/><path d="M391.21,351a5.3,5.3,0,0,1,1-2.53,1.55,1.55,0,0,0,0-2.12,1.51,1.51,0,0,0-2.12,0,9,9,0,0,0-1.92,4.65,1.51,1.51,0,0,0,1.5,1.5,1.54,1.54,0,0,0,1.5-1.5Z" transform="translate(-252.6 -112.1)"/><path d="M391.24,352.08a5.41,5.41,0,0,1,.87-2.85c1-1.64-1.56-3.15-2.59-1.51a8.45,8.45,0,0,0-1.28,4.36c0,1.93,3,1.93,3,0Z" transform="translate(-252.6 -112.1)"/><path d="M390.46,353.55l1.09-4a1.5,1.5,0,0,0-2.89-.8l-1.09,4a1.5,1.5,0,0,0,2.89.8Z" transform="translate(-252.6 -112.1)"/><path d="M390.38,353.53a36.93,36.93,0,0,1,3.14-8.28c.9-1.71-1.69-3.23-2.59-1.51a40.33,40.33,0,0,0-3.45,9c-.47,1.87,2.42,2.67,2.89.8Z" transform="translate(-252.6 -112.1)"/><path d="M391.49,350.29l1.48-3.58a1.51,1.51,0,0,0-1-1.85,1.54,1.54,0,0,0-1.85,1l-1.48,3.58a1.51,1.51,0,0,0,1,1.85,1.54,1.54,0,0,0,1.85-1Z" transform="translate(-252.6 -112.1)"/><path d="M391.42,351.76a9.9,9.9,0,0,0,1.27-4,1.51,1.51,0,0,0-1.5-1.5,1.53,1.53,0,0,0-1.5,1.5,6.3,6.3,0,0,1-.86,2.49,1.5,1.5,0,0,0,2.59,1.51Z" transform="translate(-252.6 -112.1)"/><path d="M391.5,349.94a13.71,13.71,0,0,1,1.71-3.58c1.07-1.61-1.53-3.12-2.59-1.51a16.59,16.59,0,0,0-2,4.3c-.57,1.85,2.33,2.64,2.89.8Z" transform="translate(-252.6 -112.1)"/><path d="M391.74,349.58a10.65,10.65,0,0,0,1.66-3.21,1.5,1.5,0,1,0-2.89-.8,8.37,8.37,0,0,1-1.36,2.49,1.51,1.51,0,0,0,.54,2.05,1.54,1.54,0,0,0,2.05-.54Z" transform="translate(-252.6 -112.1)"/><path d="M391.76,350l1.08-2.16a1.54,1.54,0,0,0-.54-2.05,1.51,1.51,0,0,0-2.05.54l-1.08,2.16a1.54,1.54,0,0,0,.54,2.05,1.51,1.51,0,0,0,2.05-.54Z" transform="translate(-252.6 -112.1)"/><path d="M391.86,349.16l1.79-2.16a1.54,1.54,0,0,0,0-2.12,1.51,1.51,0,0,0-2.12,0L389.74,347a1.54,1.54,0,0,0,0,2.12,1.51,1.51,0,0,0,2.12,0Z" transform="translate(-252.6 -112.1)"/><path d="M390.6,350.63l-.43-6.84c-.12-1.92-3.12-1.93-3,0l.43,6.84c.12,1.92,3.12,1.93,3,0Z" transform="translate(-252.6 -112.1)"/><path d="M390.16,347v-3.6a1.5,1.5,0,0,0-3,0V347a1.5,1.5,0,0,0,3,0Z" transform="translate(-252.6 -112.1)"/><path d="M390.16,346.68V342a1.5,1.5,0,0,0-3,0v4.68a1.5,1.5,0,0,0,3,0Z" transform="translate(-252.6 -112.1)"/><path d="M390.16,343.43V342a1.5,1.5,0,0,0-3,0v1.44a1.5,1.5,0,0,0,3,0Z" transform="translate(-252.6 -112.1)"/><path d="M390.16,341.63v-2.16a1.5,1.5,0,0,0-3,0v2.16a1.5,1.5,0,0,0,3,0Z" transform="translate(-252.6 -112.1)"/><path d="M389.44,342v-1.8a1.5,1.5,0,0,0-3,0V342a1.5,1.5,0,1,0,3,0Z" transform="translate(-252.6 -112.1)"/><path d="M386.54,339.86l1.48,7.19c.39,1.89,3.28,1.09,2.89-.8l-1.48-7.19c-.39-1.89-3.28-1.09-2.89.8Z" transform="translate(-252.6 -112.1)"/><path d="M386.54,340.59a28.56,28.56,0,0,0,2.52,7.62c.85,1.73,3.44.22,2.59-1.51a25.8,25.8,0,0,1-2.21-6.9c-.33-1.9-3.23-1.09-2.89.8Z" transform="translate(-252.6 -112.1)"/><path d="M386.44,338.39v6.12a1.5,1.5,0,0,0,3,0v-6.12a1.5,1.5,0,0,0-3,0Z" transform="translate(-252.6 -112.1)"/><path d="M386.08,343.43v1.44a1.5,1.5,0,1,0,3,0v-1.44a1.5,1.5,0,0,0-3,0Z" transform="translate(-252.6 -112.1)"/><path d="M386.44,340.91v4.68a1.5,1.5,0,0,0,3,0v-4.68a1.5,1.5,0,0,0-3,0Z" transform="translate(-252.6 -112.1)"/><path d="M386.83,345.24a25.8,25.8,0,0,0,.31,6.53c.32,1.9,3.21,1.09,2.89-.8a22.73,22.73,0,0,1-.21-5.73c.16-1.92-2.84-1.91-3,0Z" transform="translate(-252.6 -112.1)"/><path d="M386.73,343.08l.64,7.93c.16,1.91,3.16,1.93,3,0l-.64-7.93c-.16-1.91-3.16-1.93-3,0Z" transform="translate(-252.6 -112.1)"/><path d="M386.42,339.89a35.28,35.28,0,0,0,3.76,9,1.5,1.5,0,0,0,2.59-1.51,32.29,32.29,0,0,1-3.46-8.3,1.5,1.5,0,0,0-2.89.8Z" transform="translate(-252.6 -112.1)"/><path d="M386.86,341.67a15.22,15.22,0,0,0,3.59,6.81c1.3,1.44,3.41-.69,2.12-2.12a12.12,12.12,0,0,1-2.82-5.49c-.43-1.88-3.33-1.08-2.89.8Z" transform="translate(-252.6 -112.1)"/><path d="M387,343.13a25.27,25.27,0,0,0,3.85,5A1.5,1.5,0,0,0,393,346a22,22,0,0,1-3.38-4.37,1.5,1.5,0,0,0-2.59,1.51Z" transform="translate(-252.6 -112.1)"/><path d="M387.2,345.26a14.67,14.67,0,0,0,4.33,3,1.55,1.55,0,0,0,2.05-.54,1.51,1.51,0,0,0-.54-2.05,12.39,12.39,0,0,1-3.72-2.56,1.5,1.5,0,0,0-2.12,2.12Z" transform="translate(-252.6 -112.1)"/><path d="M387.26,344.12a16,16,0,0,0,4.25,2.78,1.55,1.55,0,0,0,2.05-.54,1.51,1.51,0,0,0-.54-2.05,13.58,13.58,0,0,1-3.64-2.32c-1.43-1.29-3.56.83-2.12,2.12Z" transform="translate(-252.6 -112.1)"/><path d="M388.69,346.29a3.67,3.67,0,0,0,2.85,1.18,1.5,1.5,0,0,0,0-3c-.42,0-.45,0-.73-.3a1.5,1.5,0,0,0-2.12,2.12Z" transform="translate(-252.6 -112.1)"/><path d="M388.72,341.63v-2.88a1.5,1.5,0,0,0-3,0v2.88a1.5,1.5,0,0,0,3,0Z" transform="translate(-252.6 -112.1)"/><path d="M389.45,342a13.37,13.37,0,0,1,.32-4.28c.46-1.88-2.44-2.68-2.89-.8a16,16,0,0,0-.42,5.07c.15,1.91,3.15,1.93,3,0Z" transform="translate(-252.6 -112.1)"/><path d="M389.8,339.47v-3.24a1.5,1.5,0,0,0-3,0v3.24a1.5,1.5,0,0,0,3,0Z" transform="translate(-252.6 -112.1)"/><path d="M389.44,338.39v-2.52a1.5,1.5,0,0,0-3,0v2.52a1.5,1.5,0,0,0,3,0Z" transform="translate(-252.6 -112.1)"/><text class="cls-13" transform="translate(48.26 307.81)"><tspan xml:space="preserve">GABRIELLA                 </tspan><tspan x="0" y="15.55">WHELAN</tspan></text><polygon class="cls-10" points="114.68 21.4 136.38 33.51 159.47 21.4 114.68 21.4"/><polyline class="cls-10" points="176.19 257.02 187.31 298.44 82.04 270.22 250.2 238.53"/><polygon class="cls-1" points="132.85 52.6 114.68 115.57 151.04 110.01 132.85 52.6"/><path class="cls-14" d="M388.88,121.51l.59,353.18s-.5-1.25-1.36-3.27c-3.8-9-14.67-33.05-20.83-31.29l38.86,1.62s-8,4.86-16.67,36.18" transform="translate(-252.6 -112.1)"/><polygon class="cls-15" points="123.76 82.9 102.11 57.74 155.12 50.4 144.33 82.9 123.76 82.9"/><polygon class="cls-16" points="124.79 13.4 136.38 21.32 150.11 13.4 124.79 13.4"/></svg>