<svg id="Layer_1" data-name="Layer 1" xmlns="http://www.w3.org/2000/svg" viewBox="0 0 801 601"><defs><style>.cls-1,.cls-15,.cls-3,.cls-5,.cls-7,.cls-8{stroke:#000;}.cls-1,.cls-10,.cls-14,.cls-15,.cls-16,.cls-2,.cls-3,.cls-4,.cls-5,.cls-6,.cls-7,.cls-8,.cls-9{stroke-miterlimit:10;}.cls-12,.cls-13,.cls-2,.cls-4,.cls-5{fill:#fff;}.cls-10,.cls-14,.cls-16,.cls-2,.cls-4,.cls-6,.cls-9{stroke:#fff;}.cls-2,.cls-3,.cls-7,.cls-9{stroke-width:3px;}.cls-10,.cls-11,.cls-14,.cls-15,.cls-3,.cls-9{fill:none;}.cls-14,.cls-15,.cls-6,.cls-8{stroke-width:2px;}.cls-13{font-size:21.05px;font-family:PalatinoLinotype-Roman, Palatino Linotype;}</style></defs><title>logo-second-design</title><rect class="cls-1" x="0.5" y="0.5" width="800" height="600"/><path class="cls-2" d="M336.57,93.09S434.83,74.49,458,77.69c0,0-1.71,62.44,10.26,80.41,0,0,35.07-17.11,21.38,22.24,0,0-7.7,17.11-64.15,16.25,0,0-71.85,47-99.22,6.84,0,0-14.54-29.94,28.23-29.08C354.53,174.35,341.7,92.23,336.57,93.09Z" transform="translate(0.5 0.5)"/><path class="cls-1" d="M354.48,181.13l.33,20.53s9.49,5,69.11-11.37l30.41-24.44S371.37,185,354.48,181.13Z" transform="translate(0.5 0.5)"/><path class="cls-2" d="M289.53,219.69s36.78-11.12,59,35.07c0,0,15.4,7.7,32.5,0,0,0,30.22-6.84,73.28,3.42a36.23,36.23,0,0,0,20.81-7.7s12-35.93,55.6-30.79c0,0-16.25,2.57-16.25,13.69,0,0,1.71-2.57-.86,12.83,0,0,12,1.71,17.11-2.57a98.47,98.47,0,0,1-14.54,14.54s-10.26,2.57-8.55,40.2c0,0,23.1,21.38,16.25,63.3l6.84,6v10.26s-6.84,8.55-12,12.83c0,0-65.86,57.31-102.65,22.24,0,0-9.41,5.13-4.28,8.55l-5.13-3.42L404.4,413s-61,39.35-114.88-34.22V360l5.13,1.71s-10.26-38.49,17.11-65.86l.86-6h6s2.57-18-6.84-15.4c0,0-12-19.67-22.24-28.23,0,0,.86-.86,13.69,4.28a140.53,140.53,0,0,1,0-21.38S292.95,216.26,289.53,219.69Z" transform="translate(0.5 0.5)"/><path class="cls-3" d="M323.92,294.1s-47,36.77,0,83c0,0,32.32,37.64,72.52-15.4l11.94-10.26,15.43,17.11s37.13,37.48,69,12c0,0,46.44-25.66,6.24-86.39,0,0-4.54-22.9,10.13-23.42l15.42-20.2H509.36s1.71-16.25,1.71-25.66c0,0-10.77,30.79-18.22,30.79l7.1-18.82s-32.7,31.65-55.6,24a11.91,11.91,0,0,0-8.66-6.14l-54.64.15s-21.38,19.67-61.59-15.4l9.41,18s-16.25-15.4-21.38-32.5c0,0-5.13,4.28,8.55,33.36l-13-3.42s4,12,20.88,16.25C323.92,271,332.36,285.47,323.92,294.1Z" transform="translate(0.5 0.5)"/><path class="cls-3" d="M454.33,390c-17.51,5.33-31.47,14.71-39.64,21.16a93.36,93.36,0,0,0-8,6.95C411,408.73,364.8,390,364.8,390" transform="translate(0.5 0.5)"/><path class="cls-3" d="M391.32,368s16.78,15.67,18.82,30.44c0,0,2.15-21.07,18.18-25.93" transform="translate(0.5 0.5)"/><path class="cls-4" d="M382.82,328.28s-4.44,21.43-28.34,17.15c0,0-17.91-9.41-7.64-29.94,0,0,4.66-5.75,18,0C364.8,315.49,376.67,320.54,382.82,328.28Z" transform="translate(0.5 0.5)"/><path class="cls-5" d="M435.84,329.46s7.66,27.09,31.61,11.69c0,0,11.12-.84,6-28.22,0,0-12.55-1.72-19.1,2.56,0,0-11.39-.58-16.82,9.41" transform="translate(0.5 0.5)"/><path class="cls-6" d="M444.35,260.74s14.54,9.41,18,25.66c0,0,27.11-18.62,46.91-15.73,0,0-15.26-.53-10.13,23.42,0,0-6,13.81-10.26,13.32,0,0,13.18,25.23,4,38.46,0,0-18,25.2-37.54,18.36,0,0-23.79-5.13-37.48-23.1,0,0,22.24-12,21.38-28.22s0-5.51,0-5.51-6.87-15.89-16.28-10.75c0,0,4.86-18-9.12-27.37V254.67c.29,0,6.55,12.06,6.55,12.06,11.12,5.13,11.12,23.1,17.11,21.38s6,9.81,6,9.81c7.7,2.11,3.42,9.5,3.42,9.5-.86,8.19-9.41,17.47-9.41,17.47-4.28,16.25-19.67,16.25-19.67,16.25a21.55,21.55,0,0,0-8.27-13.69c-5.7-1.71-10.55,13.69-10.55,13.69-5.13-2.57-10-5.13-10-5.13-5.77-6-13.91-19.67-13.91-19.67-7.7-18,16.25-18,16.25-18-18-7.7,5.13-29.08,5.13-29.08,7.7-7.7-26.52,24.81-26.52,24.81-8.55,18.82,8.3,27.33,8.3,27.33l3.28,10.68c11.58,6.37,17.5,9,17.5,9-3.42,40.2-48.76,26.87-48.76,26.87-47-31.3-21.38-60.59-21.38-60.59-5.13-7.21-4.95-13.32-4.95-13.32,7-22.24,2.86-16,0-23.1s30.56,18.82,30.56,18.82c-2.62-16.25,26.57-35.07,26.57-35.07" transform="translate(0.5 0.5)"/><circle class="cls-4" cx="363.13" cy="330.09" r="8.15"/><circle class="cls-4" cx="455.81" cy="330.09" r="8.15"/><path class="cls-7" d="M334.63,385.33a94.57,94.57,0,0,1-27.14,0s9.9,27.67,36.17,28.52c0,0,18.62.12,39.16-15.64,0,0-10.32-8.91-18-12.89C364.8,385.33,345.33,393.59,334.63,385.33Z" transform="translate(0.5 0.5)"/><path class="cls-8" d="M435.84,397.58s20.77,21.29,38.95,16.28c0,0,26.87-4.87,38-28.52,0,0-16.73,4.93-23.76-2.09,0,0-14.58,10.92-30.16,5.11" transform="translate(0.5 0.5)"/><polygon class="cls-9" points="254.1 390.53 554.15 156.03 254.1 229.59 603.1 422.06 254.1 390.53"/><polygon class="cls-9" points="275.48 307.92 410.63 50.82 545.78 307.92 275.48 307.92"/><polygon class="cls-9" points="278.9 321.94 410.63 505.03 541.51 321.94 278.9 321.94"/><line class="cls-10" x1="258.38" y1="280.06" x2="589.41" y2="108.13"/><line class="cls-10" x1="303.54" y1="116.68" x2="574.87" y2="370.64"/><line class="cls-11" x1="410.63" y1="31.15" x2="410.63" y2="537.53"/><path class="cls-12" d="M430.22,292.91a16.44,16.44,0,0,1,7.45,6.33c1,1.63,3.62.13,2.59-1.51a19.15,19.15,0,0,0-8.53-7.41c-1.75-.77-3.28,1.82-1.51,2.59Z" transform="translate(0.5 0.5)"/><path class="cls-12" d="M430.26,292.81a38.39,38.39,0,0,1,6.82,5.17c1.43,1.36,3.32-.65,2.12-2.12L435,290.65l-2.12,2.12,4.13,3.88c1,1,3,0,2.51-1.46a15.05,15.05,0,0,0-2.77-5l-1.46,2.51a1.41,1.41,0,0,1,1.16,2,1.51,1.51,0,0,0,1.45,1.9,2.59,2.59,0,0,0,1.25-4.79,1.51,1.51,0,0,0-2.26,1.3,12.91,12.91,0,0,0,1.69,6.07,1.5,1.5,0,0,0,2.59-1.51,9.52,9.52,0,0,1-1.28-4.56l-2.26,1.3.27-.8,1.45,1.9a4.36,4.36,0,0,0-3.25-5.72,1.51,1.51,0,0,0-1.46,2.51,11.06,11.06,0,0,1,2,3.64l2.51-1.46L435,290.65c-1.44-1.35-3.32.65-2.12,2.12l4.22,5.21,2.12-2.12a42,42,0,0,0-7.43-5.64,1.5,1.5,0,0,0-1.51,2.59Z" transform="translate(0.5 0.5)"/><path class="cls-12" d="M434,292.86l-3.18-.91c-1.73-.5-2.47,1.79-1.16,2.74l5.57,4c1.24.89,2.82-.84,2.05-2.05l-2.49-4c-1-1.63-3.6-.15-2.59,1.51l1.86,3.08,2.36-1.82a18,18,0,0,0-7.34-3.62,1.52,1.52,0,0,0-1.9,1.45c0,2.81,2.4,2,4.23,2.69l-1-1.85.46-.45,1.85,1c-1-3.38-5.79-3.08-8.15-1.79l2.05,2.05a13.21,13.21,0,0,0,1.57-7.62c-.14-1.54-2.67-2.2-2.95-.4a8.61,8.61,0,0,0,1,6.16,1.52,1.52,0,0,0,2.74-.36,9.07,9.07,0,0,0-.75-8.6c-1-1.69-3.32-.22-2.59,1.51a25.41,25.41,0,0,0,4.9,7.52c1.33,1.43,3.36-.67,2.12-2.12a27.22,27.22,0,0,1-4.67-7.67c-.71-1.76-3.59-1-2.89.8a30.13,30.13,0,0,0,5.41,9.08,1.51,1.51,0,0,0,2.51-1.46,30.16,30.16,0,0,0-5.24-9.5c-.85-1.06-2.55-.14-2.56,1.06l-.06,7,2.95-.4-.9-3.74a1.51,1.51,0,0,0-2.95.4l0,6.4c0,2,2.81,1.89,3,0a21.2,21.2,0,0,0-.87-8.61,1.5,1.5,0,0,0-2.89.8,29.5,29.5,0,0,0,2.15,6.83,1.51,1.51,0,0,0,2.74-.36c.84-3.78,0-7.1-1.32-10.68a1.51,1.51,0,0,0-2.89,0,20.15,20.15,0,0,0,.63,12.32c.46,1.23,2.63,1.61,2.89,0a35.46,35.46,0,0,0,.41-8.28,1.51,1.51,0,0,0-2.95-.4,7.43,7.43,0,0,0,.54,5.64,1.51,1.51,0,0,0,2.74-.36,10.73,10.73,0,0,0-.44-6.51c-.55-1.44-3.16-1.42-2.95.4a8.33,8.33,0,0,0,1.7,4.47,1.51,1.51,0,0,0,2.74-1.16L428,280.82l-2.89.8,1.47,3.9,2.89-.8-3.07-7.9L423.68,278l3.37,6,2.59-1.51-4.25-5.51-.23,1.82.18-.19h-2.12l.16.2c1.2,1.51,3.31-.62,2.12-2.12l-.16-.2a1.51,1.51,0,0,0-2.12,0l-.18.19a1.52,1.52,0,0,0-.23,1.82l4.25,5.51c1.14,1.48,3.57.22,2.59-1.51l-3.37-6c-.81-1.44-3.37-.46-2.74,1.16l3.07,7.9c.69,1.78,3.58,1,2.89-.8l-1.47-3.9a1.5,1.5,0,0,0-2.89.8L426.6,288l2.74-1.16a4.81,4.81,0,0,1-1.29-3l-2.95.4a8,8,0,0,1,.44,4.92l2.74-.36-.24-3.33-2.95-.4a32,32,0,0,1-.3,7.49h2.89a17.14,17.14,0,0,1-.63-10.72h-2.89c1.13,3,2,5.84,1.32,9.08l2.74-.36a26.1,26.1,0,0,1-1.85-6.11l-2.89.8a19.41,19.41,0,0,1,.76,7.81h3l0-6.4-2.95.4.9,3.74a1.51,1.51,0,0,0,2.95-.4l.06-7-2.56,1.06a25.83,25.83,0,0,1,4.47,8.18l2.51-1.46a25.77,25.77,0,0,1-4.64-7.76l-2.89.8a32,32,0,0,0,5.44,9l2.12-2.12a23.15,23.15,0,0,1-4.43-6.92l-2.59,1.51a6.31,6.31,0,0,1,.45,6.29l2.74-.36-.73-3.85-2.95-.4a10.2,10.2,0,0,1-1.16,6.11,1.51,1.51,0,0,0,2.05,2.05h3.74a1.52,1.52,0,0,0,1.85,1l.5-.15a1.49,1.49,0,0,0,1-1l.08-.44a1.56,1.56,0,0,0-1-1.85c-.23-.09-2-1-2,.2l-1.9,1.45a14.44,14.44,0,0,1,6,2.85c1.25,1,3.31-.25,2.36-1.82l-1.86-3.08-2.59,1.51,2.49,4,2.05-2.05-5.57-4L430,294.84l3.18.91a1.5,1.5,0,0,0,.8-2.89Z" transform="translate(0.5 0.5)"/><path class="cls-12" d="M426.81,289.67c0,.05.06-.23,0,0,0,0,0,.86,0,.69s.81.13,0-.29c.21.11.55,1,.69,1.22a35.64,35.64,0,0,0,4,5.08c1.33,1.41,3.43-.7,2.12-2.12l-4.12-4.46c-1.31-1.42-3.43.7-2.12,2.12l4.12,4.46,2.12-2.12A31.09,31.09,0,0,1,430.9,291a21.22,21.22,0,0,0-1.93-2.94,3.2,3.2,0,0,0-4.45.26,2.59,2.59,0,0,0,1.16,4.12,3,3,0,0,0,4-2c.37-1.89-2.52-2.69-2.89-.8Z" transform="translate(0.5 0.5)"/><path class="cls-12" d="M425.77,296.53a46.88,46.88,0,0,0,.53-10.93c-.14-1.91-3.14-1.93-3,0a43.54,43.54,0,0,1-.42,10.14c-.31,1.89,2.58,2.7,2.89.8Z" transform="translate(0.5 0.5)"/><path class="cls-12" d="M426.6,295.66a11.1,11.1,0,0,1,3.7-4.63c1.56-1.11.07-3.71-1.51-2.59a14,14,0,0,0-4.78,5.71,1.55,1.55,0,0,0,.54,2.05,1.51,1.51,0,0,0,2.05-.54Z" transform="translate(0.5 0.5)"/><path class="cls-12" d="M427.91,295.32a17.36,17.36,0,0,1,9,8.6c.85,1.73,3.43.22,2.59-1.51a20.41,20.41,0,0,0-10.82-10c-1.79-.73-2.56,2.17-.8,2.89Z" transform="translate(0.5 0.5)"/><path class="cls-12" d="M431.09,295.09a49.65,49.65,0,0,1,11.44,15.38c.83,1.74,3.42.22,2.59-1.51a51.82,51.82,0,0,0-11.91-16c-1.43-1.3-3.55.82-2.12,2.12Z" transform="translate(0.5 0.5)"/><path class="cls-12" d="M435.21,296.3a53.07,53.07,0,0,1,4.62,17.93c.15,1.91,3.15,1.93,3,0a57.45,57.45,0,0,0-5-19.45c-.8-1.75-3.38-.23-2.59,1.51Z" transform="translate(0.5 0.5)"/><path class="cls-12" d="M439.66,302.55a67.4,67.4,0,0,1-.42,12.88c-.25,1.91,2.76,1.89,3,0a67.4,67.4,0,0,0,.42-12.88c-.12-1.92-3.12-1.93-3,0Z" transform="translate(0.5 0.5)"/><path class="cls-12" d="M423,340.57a16.83,16.83,0,0,0,6.94-4.83c1.24-1.46-.87-3.6-2.12-2.12a13.82,13.82,0,0,1-5.62,4.05c-1.79.68-1,3.58.8,2.89Z" transform="translate(0.5 0.5)"/><path class="cls-12" d="M422.6,341.19l9.55-7.34c1.51-1.16,0-3.77-1.51-2.59l-9.55,7.34c-1.51,1.16,0,3.77,1.51,2.59Z" transform="translate(0.5 0.5)"/><path class="cls-12" d="M430.13,335.91l5.68-6c1.33-1.4-.79-3.53-2.12-2.12l-5.68,6c-1.33,1.4.79,3.53,2.12,2.12Z" transform="translate(0.5 0.5)"/><path class="cls-12" d="M429.1,338.42l6.47-9.91c1.06-1.62-1.54-3.13-2.59-1.51l-6.47,9.91c-1.06,1.62,1.54,3.13,2.59,1.51Z" transform="translate(0.5 0.5)"/><path class="cls-12" d="M434.95,330.82l3.49-5.27c1.07-1.61-1.53-3.12-2.59-1.51l-3.49,5.27c-1.07,1.61,1.53,3.12,2.59,1.51Z" transform="translate(0.5 0.5)"/><path class="cls-12" d="M433.23,334.36l2.77-4.19c1.07-1.61-1.53-3.12-2.59-1.51l-2.77,4.19c-1.07,1.61,1.53,3.12,2.59,1.51Z" transform="translate(0.5 0.5)"/><path class="cls-12" d="M428.5,339l3.93-5.38c1.14-1.56-1.46-3.06-2.59-1.51l-3.93,5.38c-1.14,1.56,1.46,3.06,2.59,1.51Z" transform="translate(0.5 0.5)"/><path class="cls-12" d="M429.46,337a79.06,79.06,0,0,0,11.35-16.69c.87-1.72-1.72-3.24-2.59-1.51a76,76,0,0,1-10.88,16.09c-1.27,1.44.84,3.57,2.12,2.12Z" transform="translate(0.5 0.5)"/><path class="cls-12" d="M437.19,327.26l5.73-12.92c.78-1.75-1.81-3.28-2.59-1.51l-5.73,12.92c-.78,1.75,1.81,3.28,2.59,1.51Z" transform="translate(0.5 0.5)"/><path class="cls-12" d="M439.45,321a74.83,74.83,0,0,1,5.4-11.23,1.5,1.5,0,0,0-2.59-1.51,79.53,79.53,0,0,0-5.7,11.94c-.69,1.81,2.21,2.59,2.89.8Z" transform="translate(0.5 0.5)"/><path class="cls-12" d="M439.67,322.22l5.52-13.34c.74-1.78-2.16-2.56-2.89-.8l-5.52,13.34c-.74,1.78,2.16,2.56,2.89.8Z" transform="translate(0.5 0.5)"/><path class="cls-12" d="M439.53,321.41l6.15-10.34a1.5,1.5,0,0,0-2.59-1.51l-6.15,10.34a1.5,1.5,0,0,0,2.59,1.51Z" transform="translate(0.5 0.5)"/><path class="cls-12" d="M440.25,320.9l5.22-9.38c.94-1.69-1.65-3.2-2.59-1.51l-5.22,9.38c-.94,1.69,1.65,3.2,2.59,1.51Z" transform="translate(0.5 0.5)"/><path class="cls-12" d="M440.15,320.84a37.31,37.31,0,0,0,5.47-10.28c.64-1.83-2.26-2.61-2.89-.8a34.82,34.82,0,0,1-5.17,9.56c-1.17,1.54,1.44,3,2.59,1.51Z" transform="translate(0.5 0.5)"/><path class="cls-12" d="M440.25,321.49A49.05,49.05,0,0,0,446.07,307c.43-1.88-2.47-2.68-2.89-.8A46.37,46.37,0,0,1,437.66,320a1.5,1.5,0,0,0,2.59,1.51Z" transform="translate(0.5 0.5)"/><path class="cls-12" d="M444.37,315.8a34.77,34.77,0,0,0,1.92-9.74c.11-1.93-2.9-1.92-3,0a31.9,31.9,0,0,1-1.81,8.94c-.64,1.82,2.25,2.61,2.89.8Z" transform="translate(0.5 0.5)"/><path class="cls-12" d="M444.25,313.83a14.22,14.22,0,0,0,2.61-7.18c.17-1.92-2.83-1.91-3,0a11.29,11.29,0,0,1-2.2,5.66c-1.13,1.57,1.47,3.07,2.59,1.51Z" transform="translate(0.5 0.5)"/><path class="cls-12" d="M445.43,312.28l1.21-8.18c.28-1.89-2.61-2.7-2.89-.8l-1.21,8.18c-.28,1.89,2.61,2.7,2.89.8Z" transform="translate(0.5 0.5)"/><path class="cls-12" d="M437,301.43a21.52,21.52,0,0,1,4.57,9.1c.45,1.88,3.34,1.08,2.89-.8a24.8,24.8,0,0,0-5.34-10.42c-1.25-1.47-3.37.66-2.12,2.12Z" transform="translate(0.5 0.5)"/><path class="cls-12" d="M436.38,299.82l5.18,7.66c1.08,1.59,3.68.09,2.59-1.51L439,298.3c-1.08-1.59-3.68-.09-2.59,1.51Z" transform="translate(0.5 0.5)"/><path class="cls-12" d="M436.88,297.53l5.82,9.37c1,1.64,3.61.13,2.59-1.51L439.47,296c-1-1.64-3.61-.13-2.59,1.51Z" transform="translate(0.5 0.5)"/><path class="cls-12" d="M437.79,297.78a21.8,21.8,0,0,1,6.09,7.34c.88,1.72,3.47.2,2.59-1.51a23.79,23.79,0,0,0-6.55-7.95c-1.5-1.17-3.64.93-2.12,2.12Z" transform="translate(0.5 0.5)"/><path class="cls-12" d="M438.48,297.69a17.65,17.65,0,0,1,4,14.95c-.36,1.89,2.54,2.7,2.89.8a20.91,20.91,0,0,0-4.79-17.87c-1.26-1.47-3.38.66-2.12,2.12Z" transform="translate(0.5 0.5)"/><path class="cls-12" d="M438.87,299.42a9.13,9.13,0,0,1,3.8,11.65c-.82,1.74,1.77,3.26,2.59,1.51a12.17,12.17,0,0,0-4.87-15.75,1.5,1.5,0,0,0-1.51,2.59Z" transform="translate(0.5 0.5)"/><path class="cls-12" d="M440.41,299.25a15.94,15.94,0,0,1,4.45,10.3c.1,1.92,3.1,1.93,3,0a19.21,19.21,0,0,0-5.33-12.42c-1.33-1.4-3.45.72-2.12,2.12Z" transform="translate(0.5 0.5)"/><path class="cls-12" d="M442.5,300.09A9.12,9.12,0,0,1,444,311.74c-1,1.64,1.56,3.14,2.59,1.51a12.14,12.14,0,0,0-2-15.28c-1.41-1.31-3.54.8-2.12,2.12Z" transform="translate(0.5 0.5)"/><path class="cls-12" d="M444.76,303.12A19.55,19.55,0,0,1,441,315.18c-1.13,1.57,1.48,3.07,2.59,1.51a22.29,22.29,0,0,0,4.17-13.57c0-1.93-3-1.93-3,0Z" transform="translate(0.5 0.5)"/><path class="cls-12" d="M445.73,301.58a46.09,46.09,0,0,1-5.84,16.57,1.5,1.5,0,0,0,2.59,1.51,48.34,48.34,0,0,0,6.14-17.29c.29-1.89-2.6-2.7-2.89-.8Z" transform="translate(0.5 0.5)"/><path class="cls-12" d="M437.41,302.55A85.63,85.63,0,0,1,436,319.07c-.34,1.89,2.55,2.7,2.89.8a89.83,89.83,0,0,0,1.48-17.32,1.5,1.5,0,0,0-3,0Z" transform="translate(0.5 0.5)"/><path class="cls-12" d="M438.64,304.9a72.54,72.54,0,0,1-5.43,23.52c-.74,1.78,2.17,2.56,2.89.8a75,75,0,0,0,5.54-24.32c.12-1.93-2.88-1.92-3,0Z" transform="translate(0.5 0.5)"/><path class="cls-12" d="M438,316.78a98.77,98.77,0,0,1-10.12,18.53c-1.1,1.59,1.5,3.09,2.59,1.51a102.3,102.3,0,0,0,10.42-19.25c.74-1.78-2.17-2.56-2.89-.8Z" transform="translate(0.5 0.5)"/><path class="cls-12" d="M435.67,321.6a61.22,61.22,0,0,1-8.28,12.73c-1.24,1.47.87,3.6,2.12,2.12a64.31,64.31,0,0,0,8.75-13.33c.85-1.73-1.74-3.25-2.59-1.51Z" transform="translate(0.5 0.5)"/><path class="cls-12" d="M429.89,288.16a80.92,80.92,0,0,0,8.47,10.22c1.35,1.38,3.47-.74,2.12-2.12a76.2,76.2,0,0,1-8-9.61c-1.1-1.57-3.7-.07-2.59,1.51Z" transform="translate(0.5 0.5)"/><path class="cls-12" d="M427.24,280.82a79.37,79.37,0,0,0,7.41,14.3c1.06,1.61,3.65.11,2.59-1.51A75.58,75.58,0,0,1,430.13,280c-.71-1.77-3.61-1-2.89.8Z" transform="translate(0.5 0.5)"/><path class="cls-12" d="M427.32,281.36a48,48,0,0,0,7.24,14.41c1.13,1.54,3.74,0,2.59-1.51a45.54,45.54,0,0,1-6.94-13.7c-.57-1.84-3.46-1.05-2.89.8Z" transform="translate(0.5 0.5)"/><path class="cls-12" d="M425.87,280.84a30,30,0,0,0,9.76,15.56c1.47,1.24,3.6-.88,2.12-2.12a27.28,27.28,0,0,1-9-14.23,1.5,1.5,0,0,0-2.89.8Z" transform="translate(0.5 0.5)"/><path class="cls-12" d="M426.6,284.15a36.89,36.89,0,0,0,8.17,13.73c1.32,1.41,3.44-.71,2.12-2.12a33.32,33.32,0,0,1-7.4-12.41c-.61-1.82-3.5-1-2.89.8Z" transform="translate(0.5 0.5)"/><path class="cls-12" d="M427.36,287.68l6.73,11.52a1.5,1.5,0,0,0,2.59-1.51L430,286.16a1.5,1.5,0,0,0-2.59,1.51Z" transform="translate(0.5 0.5)"/><path class="cls-12" d="M425.58,294.8a10.83,10.83,0,0,0,6.85,3.49c.81.11,1.49-.77,1.5-1.5a1.54,1.54,0,0,0-1.5-1.5,7.71,7.71,0,0,1-4.72-2.62c-1.29-1.44-3.4.68-2.12,2.12Z" transform="translate(0.5 0.5)"/><path class="cls-12" d="M425.52,294.26a8.84,8.84,0,0,0,6.91,2.79c1.92-.1,1.93-3.1,0-3a5.9,5.9,0,0,1-4.79-1.91c-1.33-1.41-3.44.72-2.12,2.12Z" transform="translate(0.5 0.5)"/><path class="cls-12" d="M438.87,292.94a1.5,1.5,0,0,0,0-3,1.5,1.5,0,0,0,0,3Z" transform="translate(0.5 0.5)"/><path class="cls-12" d="M438.43,291.29l2,9.89c.38,1.89,3.27,1.09,2.89-.8l-2-9.89c-.38-1.89-3.27-1.09-2.89.8Z" transform="translate(0.5 0.5)"/><path class="cls-12" d="M438.36,292.49l2.55,9.3a1.5,1.5,0,0,0,2.89-.8l-2.55-9.3a1.5,1.5,0,0,0-2.89.8Z" transform="translate(0.5 0.5)"/><path class="cls-12" d="M438.61,291.84l2.76,13.48c.39,1.89,3.28,1.09,2.89-.8L441.51,291c-.39-1.89-3.28-1.09-2.89.8Z" transform="translate(0.5 0.5)"/><path class="cls-12" d="M439.8,298.12a27.89,27.89,0,0,0,7.08,6.89c1.6,1.08,3.11-1.51,1.51-2.59a23.81,23.81,0,0,1-6-5.82c-1.12-1.55-3.72-.06-2.59,1.51Z" transform="translate(0.5 0.5)"/><path class="cls-12" d="M441.83,297.85a9.43,9.43,0,0,1,3.33,5.66c.36,1.89,3.25,1.09,2.89-.8a12,12,0,0,0-4.1-7c-1.47-1.23-3.61.89-2.12,2.12Z" transform="translate(0.5 0.5)"/><path class="cls-12" d="M443.37,297.73a8.54,8.54,0,0,0-4.31-10c-1.72-.86-3.24,1.73-1.51,2.59a5.55,5.55,0,0,1,2.93,6.57,1.5,1.5,0,0,0,2.89.8Z" transform="translate(0.5 0.5)"/><path class="cls-12" d="M441.14,290.78a59.27,59.27,0,0,0-11.66-2.12c-1.92-.16-1.91,2.84,0,3a55.23,55.23,0,0,1,10.86,2,1.5,1.5,0,0,0,.8-2.89Z" transform="translate(0.5 0.5)"/><path class="cls-12" d="M439.48,289.64a26.38,26.38,0,0,1-8.17-2.13c-1.75-.77-3.28,1.81-1.51,2.59a30.94,30.94,0,0,0,9.68,2.54c1.92.18,1.91-2.82,0-3Z" transform="translate(0.5 0.5)"/><path class="cls-12" d="M438.59,289.64a43.47,43.47,0,0,1-7-3.74c-1.62-1.05-3.13,1.54-1.51,2.59a47.55,47.55,0,0,0,7.76,4c1.78.74,2.56-2.16.8-2.89Z" transform="translate(0.5 0.5)"/><path class="cls-12" d="M438.63,289.91l-8-5.91c-1.55-1.15-3.05,1.45-1.51,2.59l8,5.91c1.55,1.15,3.05-1.45,1.51-2.59Z" transform="translate(0.5 0.5)"/><path class="cls-12" d="M438.4,290.11l-6.51-8.71c-1.14-1.53-3.75,0-2.59,1.51l6.51,8.71c1.14,1.53,3.75,0,2.59-1.51Z" transform="translate(0.5 0.5)"/><path class="cls-12" d="M436,289a25.62,25.62,0,0,1-4.74-12.19c-.21-1.9-3.21-1.92-3,0a28.61,28.61,0,0,0,5.15,13.71c1.11,1.56,3.72.06,2.59-1.51Z" transform="translate(0.5 0.5)"/><path class="cls-12" d="M432.65,284.18a21.57,21.57,0,0,1-4.14-9.49c-.33-1.9-3.22-1.09-2.89.8a23.44,23.44,0,0,0,4.44,10.21c1.15,1.52,3.76,0,2.59-1.51Z" transform="translate(0.5 0.5)"/><path class="cls-12" d="M431.19,285.51a118.91,118.91,0,0,1-4.49-12c-.58-1.83-3.48-1.05-2.89.8A126.1,126.1,0,0,0,428.6,287c.78,1.76,3.36.24,2.59-1.51Z" transform="translate(0.5 0.5)"/><path class="cls-12" d="M428.56,279.52l-4.81-8.11a1.5,1.5,0,0,0-2.59,1.51L426,281a1.5,1.5,0,0,0,2.59-1.51Z" transform="translate(0.5 0.5)"/><path class="cls-12" d="M428.25,279.26a27.16,27.16,0,0,1-5-9.23c-.58-1.83-3.48-1.05-2.89.8a31,31,0,0,0,5.78,10.55c1.23,1.49,3.35-.65,2.12-2.12Z" transform="translate(0.5 0.5)"/><path class="cls-12" d="M412.5,264.47a28.51,28.51,0,0,0,9.11,13.19c1.49,1.2,3.62-.91,2.12-2.12a25.7,25.7,0,0,1-8.33-11.87c-.61-1.82-3.51-1-2.89.8Z" transform="translate(0.5 0.5)"/><path class="cls-12" d="M415.84,268.86l9.46,17.48c.92,1.7,3.51.19,2.59-1.51l-9.46-17.48c-.92-1.7-3.51-.19-2.59,1.51Z" transform="translate(0.5 0.5)"/><path class="cls-12" d="M419,273.08c1.93,4.33,5.79,10.06,5.09,14.94-.27,1.89,2.62,2.7,2.89.8.85-6-3-12-5.4-17.25-.78-1.76-3.37-.24-2.59,1.51Z" transform="translate(0.5 0.5)"/><path class="cls-12" d="M421.55,276.82a67.63,67.63,0,0,0,1.93,12.65c.47,1.87,3.36,1.08,2.89-.8a63.31,63.31,0,0,1-1.82-11.86c-.11-1.92-3.11-1.93-3,0Z" transform="translate(0.5 0.5)"/><path class="cls-12" d="M415.2,264.36a25.37,25.37,0,0,0,12.41,13.72c1.72.86,3.25-1.73,1.51-2.59a22.31,22.31,0,0,1-11-11.93c-.69-1.78-3.59-1-2.89.8Z" transform="translate(0.5 0.5)"/><path class="cls-12" d="M415.61,265.46A27,27,0,0,0,426.41,277a1.5,1.5,0,0,0,1.51-2.59,24.21,24.21,0,0,1-9.73-10.42c-.85-1.73-3.44-.21-2.59,1.51Z" transform="translate(0.5 0.5)"/><path class="cls-12" d="M417.23,267.77a15.38,15.38,0,0,1,9,12.56c.18,1.91,3.18,1.92,3,0a18.35,18.35,0,0,0-10.52-15.15c-1.74-.81-3.27,1.78-1.51,2.59Z" transform="translate(0.5 0.5)"/><path class="cls-12" d="M420.73,270.38a29.1,29.1,0,0,1,6.2,18.72c0,1.93,3,1.93,3,0a32.38,32.38,0,0,0-7.08-20.84c-1.19-1.52-3.3.62-2.12,2.12Z" transform="translate(0.5 0.5)"/><path class="cls-12" d="M413.34,259.87a50.78,50.78,0,0,0,1.91,12.08,1.5,1.5,0,0,0,2.89-.8,47.34,47.34,0,0,1-1.81-11.28c-.07-1.92-3.07-1.93-3,0Z" transform="translate(0.5 0.5)"/><path class="cls-12" d="M413.94,259.87a30.22,30.22,0,0,1-.44,8.38c-.37,1.89,2.52,2.69,2.89.8a33.13,33.13,0,0,0,.55-9.18c-.16-1.91-3.16-1.93-3,0Z" transform="translate(0.5 0.5)"/><path class="cls-12" d="M413.28,265.11l-.58,4.68a1.51,1.51,0,0,0,1.5,1.5,1.54,1.54,0,0,0,1.5-1.5l.58-4.68a1.51,1.51,0,0,0-1.5-1.5,1.54,1.54,0,0,0-1.5,1.5Z" transform="translate(0.5 0.5)"/><path class="cls-12" d="M413.34,263.38a16.24,16.24,0,0,0,3,8.52c1.11,1.56,3.72.06,2.59-1.51a13.33,13.33,0,0,1-2.56-7c-.12-1.92-3.12-1.93-3,0Z" transform="translate(0.5 0.5)"/><path class="cls-12" d="M413.93,267.32l2.32,5.86c.7,1.77,3.6,1,2.89-.8l-2.32-5.86c-.7-1.77-3.6-1-2.89.8Z" transform="translate(0.5 0.5)"/><path class="cls-12" d="M413.39,266.88a6.33,6.33,0,0,0,1.61,4.57,1.51,1.51,0,0,0,2.12,0,1.53,1.53,0,0,0,0-2.12,3.29,3.29,0,0,1-.73-2.45,1.5,1.5,0,1,0-3,0Z" transform="translate(0.5 0.5)"/><path class="cls-12" d="M418.17,265.71a28.28,28.28,0,0,0-1.78-8.6c-.68-1.79-3.58-1-2.89.8a25.66,25.66,0,0,1,1.68,7.81c.1,1.92,3.1,1.93,3,0Z" transform="translate(0.5 0.5)"/><path class="cls-12" d="M417.59,263l-.67-4.67a1.51,1.51,0,0,0-1.85-1,1.54,1.54,0,0,0-1,1.85l.67,4.67a1.51,1.51,0,0,0,1.85,1,1.54,1.54,0,0,0,1-1.85Z" transform="translate(0.5 0.5)"/><path class="cls-12" d="M414.59,262a28.25,28.25,0,0,0,5.18,9.94c1.21,1.51,3.32-.63,2.12-2.12a24.49,24.49,0,0,1-4.41-8.61,1.5,1.5,0,0,0-2.89.8Z" transform="translate(0.5 0.5)"/><path class="cls-12" d="M415.21,263a31.32,31.32,0,0,0,5.77,8.9c1.31,1.43,3.42-.7,2.12-2.12a29,29,0,0,1-5.3-8.29c-.75-1.77-3.34-.24-2.59,1.51Z" transform="translate(0.5 0.5)"/><path class="cls-12" d="M414.59,263.66l8,12.4c1,1.62,3.64.12,2.59-1.51l-8-12.4c-1-1.62-3.64-.12-2.59,1.51Z" transform="translate(0.5 0.5)"/><path class="cls-12" d="M415.49,266.38l8.63,14.12c1,1.64,3.6.14,2.59-1.51l-8.63-14.12c-1-1.64-3.6-.14-2.59,1.51Z" transform="translate(0.5 0.5)"/><path class="cls-12" d="M415.2,266.7a20.9,20.9,0,0,0,8.26,12.64c1.56,1.14,3.06-1.46,1.51-2.59a17.84,17.84,0,0,1-6.88-10.85c-.4-1.89-3.29-1.09-2.89.8Z" transform="translate(0.5 0.5)"/><path class="cls-12" d="M414.76,267.64l9.92,15.22c1.05,1.61,3.65.11,2.59-1.51l-9.92-15.22c-1.05-1.61-3.65-.11-2.59,1.51Z" transform="translate(0.5 0.5)"/><path class="cls-12" d="M417.53,272.41q4.76,7.74,10.06,15.14c1.11,1.56,3.72.06,2.59-1.51q-5.29-7.39-10.06-15.14c-1-1.64-3.61-.14-2.59,1.51Z" transform="translate(0.5 0.5)"/><path d="M395.14,373.43a3.46,3.46,0,0,0,4.23,1.69c2.15-.71,2.83-3,3.18-5l-2.51.66a4.25,4.25,0,0,0,6.75-1.11c1-1.66,1-3.72,1.15-5.59a68.49,68.49,0,0,1,1.8-10.71c.46-1.87-2.43-2.67-2.89-.8a72.94,72.94,0,0,0-1.48,7.57c-.15,1.06-.26,2.12-.37,3.19-.07.72-.57,7.43-2.84,5.33a1.51,1.51,0,0,0-2.51.66,2.73,2.73,0,0,1-1.92,2.62c-.93-1.69-3.52-.18-2.59,1.51Z" transform="translate(0.5 0.5)"/><path d="M406.21,353.88c1.18,4.36,2.37,8.73,3.73,13,.75,2.39,1.28,4.67,3.73,5.77a1.53,1.53,0,0,0,2.2-.9l1.05-2.7-2.74.36a18.63,18.63,0,0,0,6.27,7.08c1.59,1.1,3.1-1.5,1.51-2.59a15.63,15.63,0,0,1-5.19-6c-.64-1.26-2.31-.74-2.74.36L413,371l2.2-.9c-2.39-1.07-3.13-6.55-3.8-8.85-.79-2.71-1.54-5.44-2.28-8.17a1.5,1.5,0,0,0-2.89.8Z" transform="translate(0.5 0.5)"/><path d="M404.33,375.41l2,8.57a1.51,1.51,0,0,0,2.95-.4A53.92,53.92,0,0,0,408,373.35l-2.89.8a46.51,46.51,0,0,1,2,9.25l2.95-.4a70.43,70.43,0,0,1-1.3-11.88,1.5,1.5,0,0,0-3,0l0,8.21a1.5,1.5,0,0,0,3,0v-9.55l-2.95.4a35.73,35.73,0,0,1,.48,9.56c-.15,1.92,2.85,1.91,3,0a38.71,38.71,0,0,0-.58-10.35c-.32-1.69-2.95-1.26-2.95.4v9.55h3l0-8.21h-3a75.28,75.28,0,0,0,1.41,12.68c.32,1.64,3.13,1.29,2.95-.4a50.37,50.37,0,0,0-2.12-10,1.5,1.5,0,0,0-2.89.8,49.67,49.67,0,0,1,1.17,9.42l2.95-.4-2-8.57c-.44-1.88-3.33-1.08-2.89.8Z" transform="translate(0.5 0.5)"/><path d="M402.48,376.41a90.29,90.29,0,0,1,6.48,9.91,1.5,1.5,0,0,0,2.59-1.51,90.29,90.29,0,0,0-6.48-9.91c-1.15-1.52-3.75,0-2.59,1.51Z" transform="translate(0.5 0.5)"/><path d="M401.06,375.38l6.25,10.88a1.5,1.5,0,0,0,2.59-1.51l-6.25-10.88a1.5,1.5,0,0,0-2.59,1.51Z" transform="translate(0.5 0.5)"/><path d="M403.14,378.11a45.3,45.3,0,0,1,5.14,10.18c.64,1.81,3.54,1,2.89-.8a48.48,48.48,0,0,0-5.44-10.9c-1.07-1.6-3.67-.1-2.59,1.51Z" transform="translate(0.5 0.5)"/><path d="M406,379.52l1.64,7c.44,1.88,3.33,1.08,2.89-.8l-1.64-7c-.44-1.88-3.33-1.08-2.89.8Z" transform="translate(0.5 0.5)"/><path d="M411.71,385.59a9.89,9.89,0,0,1,1.58-6.25c1-1.63-1.55-3.14-2.59-1.51a12.64,12.64,0,0,0-2,7.76c.14,1.91,3.14,1.93,3,0Z" transform="translate(0.5 0.5)"/><path d="M411.6,384.8a22.07,22.07,0,0,1,2.82-6.07c1.07-1.62-1.53-3.12-2.59-1.51a24.87,24.87,0,0,0-3.12,6.78,1.5,1.5,0,0,0,2.89.8Z" transform="translate(0.5 0.5)"/><path d="M412.82,384.41a9.75,9.75,0,0,1,2-4.78c1.17-1.5-.93-3.64-2.12-2.12a13.51,13.51,0,0,0-2.85,6.9,1.51,1.51,0,0,0,1.5,1.5,1.53,1.53,0,0,0,1.5-1.5Z" transform="translate(0.5 0.5)"/><path d="M412.88,386.17a9.73,9.73,0,0,1,1.55-5.09c1-1.64-1.56-3.15-2.59-1.51a12.78,12.78,0,0,0-2,6.61c0,1.93,3,1.93,3,0Z" transform="translate(0.5 0.5)"/><path d="M411.64,388.32l1.76-6.43a1.5,1.5,0,0,0-2.89-.8l-1.76,6.43a1.5,1.5,0,0,0,2.89.8Z" transform="translate(0.5 0.5)"/><path d="M411.52,388.29a61,61,0,0,1,5.2-13.67c.9-1.71-1.69-3.23-2.59-1.51a64.44,64.44,0,0,0-5.5,14.39c-.47,1.87,2.42,2.67,2.89.8Z" transform="translate(0.5 0.5)"/><path d="M413.32,383l2.41-5.82a1.51,1.51,0,0,0-1-1.85,1.54,1.54,0,0,0-1.85,1l-2.41,5.82a1.51,1.51,0,0,0,1,1.85,1.54,1.54,0,0,0,1.85-1Z" transform="translate(0.5 0.5)"/><path d="M413.29,385.19a15,15,0,0,0,1.93-6,1.51,1.51,0,0,0-1.5-1.5,1.53,1.53,0,0,0-1.5,1.5,11.35,11.35,0,0,1-1.52,4.52,1.5,1.5,0,0,0,2.59,1.51Z" transform="translate(0.5 0.5)"/><path d="M413.34,382.45a23.16,23.16,0,0,1,2.87-6c1.07-1.61-1.53-3.12-2.59-1.51a26,26,0,0,0-3.17,6.76c-.57,1.85,2.33,2.64,2.89.8Z" transform="translate(0.5 0.5)"/><path d="M413.82,381.64a16.57,16.57,0,0,0,2.61-5c.61-1.84-2.29-2.63-2.89-.8a14.25,14.25,0,0,1-2.3,4.27,1.51,1.51,0,0,0,.54,2.05,1.54,1.54,0,0,0,2.05-.54Z" transform="translate(0.5 0.5)"/><path d="M413.85,382.25l1.75-3.51a1.54,1.54,0,0,0-.54-2.05,1.51,1.51,0,0,0-2.05.54l-1.75,3.51a1.54,1.54,0,0,0,.54,2.05,1.51,1.51,0,0,0,2.05-.54Z" transform="translate(0.5 0.5)"/><path d="M414.16,380.77l2.91-3.52a1.54,1.54,0,0,0,0-2.12,1.51,1.51,0,0,0-2.12,0L412,378.65a1.54,1.54,0,0,0,0,2.12,1.51,1.51,0,0,0,2.12,0Z" transform="translate(0.5 0.5)"/><path d="M411.83,383.82l-.7-11.1c-.12-1.92-3.12-1.93-3,0l.7,11.1c.12,1.92,3.12,1.93,3,0Z" transform="translate(0.5 0.5)"/><path d="M411.13,378v-5.85a1.5,1.5,0,0,0-3,0V378a1.5,1.5,0,0,0,3,0Z" transform="translate(0.5 0.5)"/><path d="M411.13,377.4v-7.6a1.5,1.5,0,0,0-3,0v7.6a1.5,1.5,0,0,0,3,0Z" transform="translate(0.5 0.5)"/><path d="M411.13,372.14V369.8a1.5,1.5,0,1,0-3,0v2.34a1.5,1.5,0,1,0,3,0Z" transform="translate(0.5 0.5)"/><path d="M411.13,369.21V365.7a1.5,1.5,0,0,0-3,0v3.51a1.5,1.5,0,0,0,3,0Z" transform="translate(0.5 0.5)"/><path d="M410,369.8v-2.92a1.5,1.5,0,0,0-3,0v2.92a1.5,1.5,0,0,0,3,0Z" transform="translate(0.5 0.5)"/><path d="M407.09,366.09l2.4,11.68c.39,1.89,3.28,1.09,2.89-.8L410,365.29c-.39-1.89-3.28-1.09-2.89.8Z" transform="translate(0.5 0.5)"/><path d="M407.09,367.26a45.53,45.53,0,0,0,4,12.15c.85,1.73,3.44.22,2.59-1.51A42.73,42.73,0,0,1,410,366.46c-.33-1.9-3.23-1.09-2.89.8Z" transform="translate(0.5 0.5)"/><path d="M407,363.95v9.94a1.5,1.5,0,0,0,3,0v-9.94a1.5,1.5,0,0,0-3,0Z" transform="translate(0.5 0.5)"/><path d="M406.38,372.14v2.34a1.5,1.5,0,0,0,3,0v-2.34a1.5,1.5,0,0,0-3,0Z" transform="translate(0.5 0.5)"/><path d="M407,368v7.6a1.5,1.5,0,0,0,3,0V368a1.5,1.5,0,0,0-3,0Z" transform="translate(0.5 0.5)"/><path d="M407.59,375.06a40.94,40.94,0,0,0,.48,10.36c.32,1.9,3.21,1.09,2.89-.8a37.85,37.85,0,0,1-.37-9.56c.16-1.92-2.84-1.91-3,0Z" transform="translate(0.5 0.5)"/><path d="M407.43,371.56l1,12.87c.16,1.91,3.16,1.93,3,0l-1-12.87c-.16-1.91-3.16-1.93-3,0Z" transform="translate(0.5 0.5)"/><path d="M406.88,366.14a56.35,56.35,0,0,0,6,14.43,1.5,1.5,0,0,0,2.59-1.51,53.39,53.39,0,0,1-5.72-13.71,1.5,1.5,0,0,0-2.89.8Z" transform="translate(0.5 0.5)"/><path d="M407.61,369a23.75,23.75,0,0,0,5.59,10.65c1.3,1.44,3.41-.69,2.12-2.12a20.64,20.64,0,0,1-4.82-9.32c-.43-1.88-3.33-1.08-2.89.8Z" transform="translate(0.5 0.5)"/><path d="M407.71,371.16a40,40,0,0,0,6.11,7.9,1.5,1.5,0,0,0,2.12-2.12,36.8,36.8,0,0,1-5.64-7.29,1.5,1.5,0,0,0-2.59,1.51Z" transform="translate(0.5 0.5)"/><path d="M407.91,374.44a23.11,23.11,0,0,0,6.85,4.77c1.75.79,3.27-1.8,1.51-2.59a20.84,20.84,0,0,1-6.24-4.3,1.5,1.5,0,0,0-2.12,2.12Z" transform="translate(0.5 0.5)"/><path d="M408,372.59a25.23,25.23,0,0,0,6.71,4.38c1.75.77,3.28-1.81,1.51-2.59a22.8,22.8,0,0,1-6.1-3.91c-1.43-1.29-3.56.83-2.12,2.12Z" transform="translate(0.5 0.5)"/><path d="M410.34,376.11a5,5,0,0,0,4,1.64,1.53,1.53,0,0,0,1.5-1.5,1.51,1.51,0,0,0-1.5-1.5,2.07,2.07,0,0,1-1.85-.76,1.5,1.5,0,1,0-2.12,2.12Z" transform="translate(0.5 0.5)"/><path d="M408.79,369.21v-4.68a1.5,1.5,0,0,0-3,0v4.68a1.5,1.5,0,0,0,3,0Z" transform="translate(0.5 0.5)"/><path d="M410,369.8a22.54,22.54,0,0,1,.55-7.19c.46-1.88-2.44-2.68-2.89-.8a25.18,25.18,0,0,0-.66,8c.15,1.91,3.15,1.93,3,0Z" transform="translate(0.5 0.5)"/><path d="M410.55,365.7v-5.26a1.5,1.5,0,0,0-3,0v5.26a1.5,1.5,0,0,0,3,0Z" transform="translate(0.5 0.5)"/><path d="M410,363.95v-4.09a1.5,1.5,0,0,0-3,0v4.09a1.5,1.5,0,0,0,3,0Z" transform="translate(0.5 0.5)"/><text class="cls-13" transform="translate(267.52 496.84)"><tspan xml:space="preserve">GABRIELLA                 </tspan><tspan x="0" y="25.26">WHELAN</tspan></text><polygon class="cls-10" points="375.39 32 410.63 51.67 448.14 32 375.39 32"/><polyline class="cls-10" points="475.29 414.36 493.35 481.61 322.39 435.79 595.49 384.32"/><polygon class="cls-1" points="404.9 82.35 375.39 184.62 434.45 175.6 404.9 82.35"/><path class="cls-14" d="M410,11.71l1,573.6s-.81-2-2.2-5.32c-6.17-14.54-23.82-53.68-33.84-50.82L438,531.81s-13,7.89-27.07,58.76" transform="translate(0.5 0.5)"/><polygon class="cls-15" points="390.15 131.5 354.98 90.67 441.08 78.73 423.55 131.5 390.15 131.5"/><polygon class="cls-16" points="391.81 18 410.63 30.86 432.94 18 391.81 18"/></svg>